<?xml version="1.0" encoding="UTF-8" standalone="no"?>
<!DOCTYPE svg PUBLIC "-//W3C//DTD SVG 1.1//EN" "http://www.w3.org/Graphics/SVG/1.1/DTD/svg11.dtd">
<!-- 由 Microsoft Visio, SVG Export 生成 fig4_dataset_miou.svg Page-1 -->
<svg xmlns="http://www.w3.org/2000/svg" xmlns:xlink="http://www.w3.org/1999/xlink" xmlns:ev="http://www.w3.org/2001/xml-events"
		xmlns:v="http://schemas.microsoft.com/visio/2003/SVGExtensions/" width="16.0354in" height="11.6929in"
		viewBox="0 0 1154.55 841.89" xml:space="preserve" color-interpolation-filters="sRGB" class="st14">
	<v:documentProperties v:langID="2052" v:metric="true" v:viewMarkup="false">
		<v:userDefs>
			<v:ud v:nameU="msvNoAutoConnect" v:val="VT0(1):26"/>
		</v:userDefs>
	</v:documentProperties>

	<style type="text/css">
	<![CDATA[
		.st1 {fill:#ffffff;stroke:none;stroke-linecap:butt;stroke-width:1}
		.st2 {fill:#000000;stroke:none;stroke-linecap:butt;stroke-width:0.75}
		.st3 {fill:none;stroke:none;stroke-linecap:butt;stroke-width:0.75}
		.st4 {fill:#000000;font-family:Arial;font-size:0.75em}
		.st5 {fill:none}
		.st6 {stroke:#000000;stroke-width:0.8}
		.st7 {stroke:#000000;stroke-width:0.95}
		.st8 {fill:#000000;font-family:Arial;font-size:0.666664em}
		.st9 {fill:#000000}
		.st10 {stroke:#000000;stroke-linecap:butt;stroke-width:0.8}
		.st11 {fill:#1b1b1b;font-family:Arial;font-size:0.550003em}
		.st12 {stroke:#222222;stroke-width:0.8}
		.st13 {fill:#222222;font-family:Arial;font-size:0.616676em}
		.st14 {fill:none;fill-rule:evenodd;font-size:12px;overflow:visible;stroke-linecap:square;stroke-miterlimit:3}
	]]>
	</style>

	<g v:mID="0" v:index="1" v:groupContext="foregroundPage">
		<title>页-1</title>
		<v:pageProperties v:drawingScale="0.0393701" v:pageScale="0.0393701" v:drawingUnits="24" v:shadowOffsetX="9"
				v:shadowOffsetY="-9"/>
		<g id="group1-1" transform="translate(247.465,-342.693)" v:mID="1" v:groupContext="group">
			<title>工作表.1</title>
			<g id="group2-2" v:mID="2" v:groupContext="group">
				<title>figure_1</title>
				<g id="shape3-3" v:mID="3" v:groupContext="shape">
					<title>工作表.3</title>
					<rect x="0" y="674.347" width="680.141" height="167.543" class="st1"/>
				</g>
				<g id="group4-5" transform="translate(0.999531,-6.56759)" v:mID="4" v:groupContext="group">
					<title>axes_1</title>
					<g id="shape5-6" v:mID="5" v:groupContext="shape" transform="translate(38.5,-28.0441)">
						<title>工作表.5</title>
						<rect x="0" y="736.251" width="186.306" height="105.638" class="st1"/>
					</g>
					<g id="group6-8" transform="translate(38.5,-28.0441)" v:mID="6" v:groupContext="group">
						<title>p9e7c219cad</title>
						<g id="shape7-9" v:mID="7" v:groupContext="shape">
							<title>工作表.7</title>
							<rect x="0" y="736.251" width="186.306" height="105.638" class="st2"/>
						</g>
					</g>
					<g id="group8-11" transform="translate(38.5,-28.0441)" v:mID="8" v:groupContext="group">
						<title>工作表.8</title>
						<g id="shape9-12" v:mID="9" v:groupContext="shape">
							<title>工作表.9</title>
							<rect x="0" y="736.251" width="186.306" height="105.638" class="st2"/>
						</g>
					</g>
					<g id="group10-14" transform="translate(38.5,-28.0441)" v:mID="10" v:groupContext="group">
						<title>工作表.10</title>
						<g id="shape11-15" v:mID="11" v:groupContext="shape">
							<title>工作表.11</title>
							<rect x="0" y="736.251" width="186.306" height="105.638" class="st2"/>
						</g>
					</g>
					<g id="group12-17" transform="translate(38.5,-28.0441)" v:mID="12" v:groupContext="group">
						<title>工作表.12</title>
						<g id="shape13-18" v:mID="13" v:groupContext="shape">
							<title>工作表.13</title>
							<rect x="0" y="736.251" width="186.306" height="105.638" class="st2"/>
						</g>
					</g>
					<g id="group14-20" transform="translate(38.5,-28.0441)" v:mID="14" v:groupContext="group">
						<title>工作表.14</title>
						<g id="shape15-21" v:mID="15" v:groupContext="shape">
							<title>工作表.15</title>
							<rect x="0" y="736.251" width="186.306" height="105.638" class="st2"/>
						</g>
					</g>
					<g id="shape16-23" v:mID="16" v:groupContext="shape" transform="translate(77.6532,-134.983)">
						<title>工作表.16</title>
						<desc>Bridge Crack</desc>
						<v:textBlock v:margins="rect(0,0,0,0)" v:tabSpace="42.5197"/>
						<v:textRect cx="54" cy="836.49" width="108" height="10.8"/>
						<rect x="0" y="831.09" width="108" height="10.8" class="st3"/>
						<text x="27.99" y="839.19" class="st4" v:langID="2052"><v:paragraph v:horizAlign="1"/><v:tabList/>Bridge Crack</text>					</g>
					<g id="shape17-26" v:mID="17" v:groupContext="shape" transform="translate(38.5,-28.0441)">
						<title>工作表.17</title>
						<path d="M0 841.89 L0 736.25 L0 841.89 Z" class="st5"/>
						<path d="M0 841.89 L0 736.25" class="st6"/>
					</g>
					<g id="shape18-29" v:mID="18" v:groupContext="shape" transform="translate(38.5,-28.0441)">
						<title>工作表.18</title>
						<path d="M0 841.89 L186.31 841.89 L0 841.89 Z" class="st5"/>
						<path d="M0 841.89 L186.31 841.89" class="st7"/>
					</g>
					<g id="group19-32" transform="translate(27.7774,-2.27374E-13)" v:mID="19" v:groupContext="group">
						<title>matplotlib.axis_1</title>
						<g id="group20-33" transform="translate(-1.1231E-12,-0.086087)" v:mID="20" v:groupContext="group">
							<title>xtick_1</title>
							<g id="shape21-34" v:mID="21" v:groupContext="shape"
									transform="translate(-390.736,98.5452) rotate(-28)">
								<title>工作表.21</title>
								<desc>SeaFormer</desc>
								<v:textBlock v:margins="rect(0,0,0,0)" v:tabSpace="42.5197"/>
								<v:textRect cx="36" cy="837.09" width="72.01" height="9.6"/>
								<rect x="0" y="832.29" width="72" height="9.6" class="st3"/>
								<text x="0" y="839.49" class="st8" v:langID="2052"><v:paragraph/><v:tabList/>SeaFormer</text>							</g>
						</g>
						<g id="group22-37" transform="translate(32.1677,2.27374E-13)" v:mID="22" v:groupContext="group">
							<title>xtick_2</title>
							<g id="shape23-38" v:mID="23" v:groupContext="shape"
									transform="translate(-390.736,98.5452) rotate(-28)">
								<title>工作表.23</title>
								<desc>SegFormer</desc>
								<v:textBlock v:margins="rect(0,0,0,0)" v:tabSpace="42.5197"/>
								<v:textRect cx="36" cy="837.09" width="72.01" height="9.6"/>
								<rect x="0" y="832.29" width="72" height="9.6" class="st3"/>
								<text x="0" y="839.49" class="st8" v:langID="2052"><v:paragraph/><v:tabList/>SegFormer</text>							</g>
						</g>
						<g id="group24-41" transform="translate(67.9509,-1.96163)" v:mID="24" v:groupContext="group">
							<title>xtick_3</title>
							<g id="shape25-42" v:mID="25" v:groupContext="shape"
									transform="translate(-390.736,98.5452) rotate(-28)">
								<title>工作表.25</title>
								<desc>MobileNet</desc>
								<v:textBlock v:margins="rect(0,0,0,0)" v:tabSpace="42.5197"/>
								<v:textRect cx="36" cy="837.09" width="72.01" height="9.6"/>
								<rect x="0" y="832.29" width="72" height="9.6" class="st3"/>
								<text x="-0" y="839.49" class="st8" v:langID="2052"><v:paragraph/><v:tabList/>MobileNet</text>							</g>
						</g>
						<g id="group26-45" transform="translate(113.516,-9.0618)" v:mID="26" v:groupContext="group">
							<title>xtick_4</title>
							<g id="shape27-46" v:mID="27" v:groupContext="shape"
									transform="translate(-390.736,98.5452) rotate(-28)">
								<title>工作表.27</title>
								<desc>U-Net</desc>
								<v:textBlock v:margins="rect(0,0,0,0)" v:tabSpace="42.5197"/>
								<v:textRect cx="20" cy="837.09" width="40" height="9.6"/>
								<rect x="0" y="832.29" width="40" height="9.6" class="st3"/>
								<text x="-0" y="839.49" class="st8" v:langID="2052"><v:paragraph/><v:tabList/>U-Net</text>							</g>
						</g>
						<g id="group28-49" transform="translate(134.34,-3.00679)" v:mID="28" v:groupContext="group">
							<title>xtick_5</title>
							<g id="shape29-50" v:mID="29" v:groupContext="shape"
									transform="translate(-390.736,98.5452) rotate(-28)">
								<title>工作表.29</title>
								<desc>CrackLite</desc>
								<v:textBlock v:margins="rect(0,0,0,0)" v:tabSpace="42.5197"/>
								<v:textRect cx="36" cy="837.09" width="72.01" height="9.6"/>
								<rect x="0" y="832.29" width="72" height="9.6" class="st3"/>
								<text x="0" y="839.49" class="st8" v:langID="2052"><v:paragraph/><v:tabList/>CrackLite</text>							</g>
						</g>
					</g>
					<g id="group30-53" transform="translate(-1.79856E-13,-29.8235)" v:mID="30" v:groupContext="group">
						<title>matplotlib.axis_2</title>
						<g id="group31-54" v:mID="31" v:groupContext="group">
							<title>ytick_1</title>
							<g id="group32-55" transform="translate(35.5,-5.26312)" v:mID="32" v:groupContext="group">
								<title>line2d_6</title>
								<g id="shape33-56" v:mID="33" v:groupContext="shape">
									<title>m3b25fb5813</title>
									<path d="M3 841.89 L0 841.89 L3 841.89 Z" class="st9"/>
									<path d="M3 841.89 L0 841.89" class="st10"/>
								</g>
							</g>
							<g id="shape34-59" v:mID="34" v:groupContext="shape">
								<title>工作表.34</title>
								<desc>0.70</desc>
								<v:textBlock v:margins="rect(0,0,0,0)" v:tabSpace="42.5197"/>
								<v:textRect cx="16" cy="837.09" width="32.01" height="9.6"/>
								<rect x="0" y="832.29" width="32" height="9.6" class="st3"/>
								<text x="16.43" y="839.49" class="st8" v:langID="2052"><v:paragraph v:horizAlign="2"/><v:tabList/>0.70</text>							</g>
						</g>
						<g id="group35-62" transform="translate(4.39648E-14,-17.6064)" v:mID="35" v:groupContext="group">
							<title>ytick_2</title>
							<g id="shape36-63" v:mID="36" v:groupContext="shape" transform="translate(35.5,-5.26312)">
								<title>m3b25fb5813</title>
								<path d="M3 841.89 L0 841.89 L3 841.89 Z" class="st9"/>
								<path d="M3 841.89 L0 841.89" class="st10"/>
							</g>
							<g id="shape37-66" v:mID="37" v:groupContext="shape">
								<title>工作表.37</title>
								<desc>0.72</desc>
								<v:textBlock v:margins="rect(0,0,0,0)" v:tabSpace="42.5197"/>
								<v:textRect cx="16" cy="837.09" width="32.01" height="9.6"/>
								<rect x="0" y="832.29" width="32" height="9.6" class="st3"/>
								<text x="16.43" y="839.49" class="st8" v:langID="2052"><v:paragraph v:horizAlign="2"/><v:tabList/>0.72</text>							</g>
						</g>
						<g id="group38-69" transform="translate(4.39648E-14,-35.2128)" v:mID="38" v:groupContext="group">
							<title>ytick_3</title>
							<g id="shape39-70" v:mID="39" v:groupContext="shape" transform="translate(35.5,-5.26312)">
								<title>m3b25fb5813</title>
								<path d="M3 841.89 L0 841.89 L3 841.89 Z" class="st9"/>
								<path d="M3 841.89 L0 841.89" class="st10"/>
							</g>
							<g id="shape40-73" v:mID="40" v:groupContext="shape">
								<title>工作表.40</title>
								<desc>0.74</desc>
								<v:textBlock v:margins="rect(0,0,0,0)" v:tabSpace="42.5197"/>
								<v:textRect cx="16" cy="837.09" width="32.01" height="9.6"/>
								<rect x="0" y="832.29" width="32" height="9.6" class="st3"/>
								<text x="16.43" y="839.49" class="st8" v:langID="2052"><v:paragraph v:horizAlign="2"/><v:tabList/>0.74</text>							</g>
						</g>
						<g id="group41-76" transform="translate(4.39648E-14,-52.8192)" v:mID="41" v:groupContext="group">
							<title>ytick_4</title>
							<g id="shape42-77" v:mID="42" v:groupContext="shape" transform="translate(35.5,-5.26312)">
								<title>m3b25fb5813</title>
								<path d="M3 841.89 L0 841.89 L3 841.89 Z" class="st9"/>
								<path d="M3 841.89 L0 841.89" class="st10"/>
							</g>
							<g id="shape43-80" v:mID="43" v:groupContext="shape">
								<title>工作表.43</title>
								<desc>0.76</desc>
								<v:textBlock v:margins="rect(0,0,0,0)" v:tabSpace="42.5197"/>
								<v:textRect cx="16" cy="837.09" width="32.01" height="9.6"/>
								<rect x="0" y="832.29" width="32" height="9.6" class="st3"/>
								<text x="16.43" y="839.49" class="st8" v:langID="2052"><v:paragraph v:horizAlign="2"/><v:tabList/>0.76</text>							</g>
						</g>
						<g id="group44-83" transform="translate(4.39648E-14,-70.4256)" v:mID="44" v:groupContext="group">
							<title>ytick_5</title>
							<g id="shape45-84" v:mID="45" v:groupContext="shape" transform="translate(35.5,-5.26312)">
								<title>m3b25fb5813</title>
								<path d="M3 841.89 L0 841.89 L3 841.89 Z" class="st9"/>
								<path d="M3 841.89 L0 841.89" class="st10"/>
							</g>
							<g id="shape46-87" v:mID="46" v:groupContext="shape">
								<title>工作表.46</title>
								<desc>0.78</desc>
								<v:textBlock v:margins="rect(0,0,0,0)" v:tabSpace="42.5197"/>
								<v:textRect cx="16" cy="837.09" width="32.01" height="9.6"/>
								<rect x="0" y="832.29" width="32" height="9.6" class="st3"/>
								<text x="16.43" y="839.49" class="st8" v:langID="2052"><v:paragraph v:horizAlign="2"/><v:tabList/>0.78</text>							</g>
						</g>
						<g id="group47-90" transform="translate(4.39648E-14,-88.032)" v:mID="47" v:groupContext="group">
							<title>ytick_6</title>
							<g id="shape48-91" v:mID="48" v:groupContext="shape" transform="translate(35.5,-5.26312)">
								<title>m3b25fb5813</title>
								<path d="M3 841.89 L0 841.89 L3 841.89 Z" class="st9"/>
								<path d="M3 841.89 L0 841.89" class="st10"/>
							</g>
							<g id="shape49-94" v:mID="49" v:groupContext="shape">
								<title>工作表.49</title>
								<desc>0.80</desc>
								<v:textBlock v:margins="rect(0,0,0,0)" v:tabSpace="42.5197"/>
								<v:textRect cx="16" cy="837.09" width="32.01" height="9.6"/>
								<rect x="0" y="832.29" width="32" height="9.6" class="st3"/>
								<text x="16.43" y="839.49" class="st8" v:langID="2052"><v:paragraph v:horizAlign="2"/><v:tabList/>0.80</text>							</g>
						</g>
						<g id="shape50-97" v:mID="50" v:groupContext="shape" transform="translate(-826.547,808.85) rotate(-90)">
							<title>工作表.50</title>
							<desc>mIoU</desc>
							<v:textBlock v:margins="rect(0,0,0,0)" v:tabSpace="42.5197"/>
							<v:textRect cx="18" cy="836.49" width="36" height="10.8"/>
							<rect x="0" y="831.09" width="36" height="10.8" class="st3"/>
							<text x="7.25" y="839.19" class="st4" v:langID="2052"><v:paragraph v:horizAlign="1"/><v:tabList/>mIoU</text>						</g>
					</g>
					<g id="shape51-100" v:mID="51" v:groupContext="shape" transform="translate(47.4297,-43.4857)">
						<title>工作表.51</title>
						<desc>0.7081</desc>
						<v:textBlock v:margins="rect(0,0,0,0)" v:tabSpace="42.5197"/>
						<v:textRect cx="19.8" cy="837.93" width="39.61" height="7.92"/>
						<rect x="0" y="833.97" width="39.6" height="7.92" class="st3"/>
						<text x="9.71" y="839.91" class="st11" v:langID="2052"><v:paragraph v:horizAlign="1"/><v:tabList/>0.7081</text>					</g>
					<g id="shape52-103" v:mID="52" v:groupContext="shape" transform="translate(79.6414,-98.5937)">
						<title>工作表.52</title>
						<desc>0.7707</desc>
						<v:textBlock v:margins="rect(0,0,0,0)" v:tabSpace="42.5197"/>
						<v:textRect cx="19.8" cy="837.93" width="39.61" height="7.92"/>
						<rect x="0" y="833.97" width="39.6" height="7.92" class="st3"/>
						<text x="9.71" y="839.91" class="st11" v:langID="2052"><v:paragraph v:horizAlign="1"/><v:tabList/>0.7707</text>					</g>
					<g id="shape53-106" v:mID="53" v:groupContext="shape" transform="translate(111.853,-99.21)">
						<title>工作表.53</title>
						<desc>0.7714</desc>
						<v:textBlock v:margins="rect(0,0,0,0)" v:tabSpace="42.5197"/>
						<v:textRect cx="19.8" cy="837.93" width="39.61" height="7.92"/>
						<rect x="0" y="833.97" width="39.6" height="7.92" class="st3"/>
						<text x="9.71" y="839.91" class="st11" v:langID="2052"><v:paragraph v:horizAlign="1"/><v:tabList/>0.7714</text>					</g>
					<g id="shape54-109" v:mID="54" v:groupContext="shape" transform="translate(144.065,-101.675)">
						<title>工作表.54</title>
						<desc>0.7742</desc>
						<v:textBlock v:margins="rect(0,0,0,0)" v:tabSpace="42.5197"/>
						<v:textRect cx="19.8" cy="837.93" width="39.61" height="7.92"/>
						<rect x="0" y="833.97" width="39.6" height="7.92" class="st3"/>
						<text x="9.71" y="839.91" class="st11" v:langID="2052"><v:paragraph v:horizAlign="1"/><v:tabList/>0.7742</text>					</g>
					<g id="shape55-112" v:mID="55" v:groupContext="shape" transform="translate(176.277,-112.239)">
						<title>工作表.55</title>
						<desc>0.7862</desc>
						<v:textBlock v:margins="rect(0,0,0,0)" v:tabSpace="42.5197"/>
						<v:textRect cx="19.8" cy="837.93" width="39.61" height="7.92"/>
						<rect x="0" y="833.97" width="39.6" height="7.92" class="st3"/>
						<text x="9.71" y="839.91" class="st11" v:langID="2052"><v:paragraph v:horizAlign="1"/><v:tabList/>0.7862</text>					</g>
					<g id="shape56-115" v:mID="56" v:groupContext="shape" transform="translate(163.865,-123.119)">
						<title>工作表.56</title>
						<path d="M0 841.89 L0 838.37 L32.21 838.37 L32.21 841.89 L0 841.89 Z" class="st5"/>
						<path d="M0 841.89 L0 838.37 L32.21 838.37 L32.21 841.89" class="st12"/>
					</g>
					<g id="shape57-118" v:mID="57" v:groupContext="shape" transform="translate(150.371,-126.771)">
						<title>工作表.57</title>
						<desc>p &#60; 0.01</desc>
						<v:textBlock v:margins="rect(0,0,0,0)" v:tabSpace="42.5197"/>
						<v:textRect cx="29.6" cy="837.45" width="59.2" height="8.88"/>
						<rect x="0" y="833.01" width="59.2" height="8.88" class="st3"/>
						<text x="16.12" y="839.67" class="st13" v:langID="2052"><v:paragraph v:horizAlign="1"/><v:tabList/>p &#60; 0.01</text>					</g>
					<g id="shape58-121" v:mID="58" v:groupContext="shape" transform="translate(46.9685,-28.0441)">
						<title>工作表.58</title>
						<path d="M0 841.89 L169.37 841.89 L0 841.89 Z" class="st5"/>
						<path d="M0 841.89 L169.37 841.89" class="st7"/>
					</g>
				</g>
				<g id="group59-124" transform="translate(224.567,-6.56759)" v:mID="59" v:groupContext="group">
					<title>axes_2</title>
					<g id="shape60-125" v:mID="60" v:groupContext="shape" transform="translate(38.5,-28.0441)">
						<title>工作表.60</title>
						<rect x="0" y="736.251" width="186.306" height="105.638" class="st1"/>
					</g>
					<g id="group61-127" transform="translate(38.5,-28.0441)" v:mID="61" v:groupContext="group">
						<title>pb4baab7287</title>
						<g id="shape62-128" v:mID="62" v:groupContext="shape">
							<title>工作表.62</title>
							<rect x="0" y="736.251" width="186.306" height="105.638" class="st2"/>
						</g>
					</g>
					<g id="group63-130" transform="translate(38.5,-28.0441)" v:mID="63" v:groupContext="group">
						<title>工作表.63</title>
						<g id="shape64-131" v:mID="64" v:groupContext="shape">
							<title>工作表.64</title>
							<rect x="0" y="736.251" width="186.306" height="105.638" class="st2"/>
						</g>
					</g>
					<g id="group65-133" transform="translate(38.5,-28.0441)" v:mID="65" v:groupContext="group">
						<title>工作表.65</title>
						<g id="shape66-134" v:mID="66" v:groupContext="shape">
							<title>工作表.66</title>
							<rect x="0" y="736.251" width="186.306" height="105.638" class="st2"/>
						</g>
					</g>
					<g id="group67-136" transform="translate(38.5,-28.0441)" v:mID="67" v:groupContext="group">
						<title>工作表.67</title>
						<g id="shape68-137" v:mID="68" v:groupContext="shape">
							<title>工作表.68</title>
							<rect x="0" y="736.251" width="186.306" height="105.638" class="st2"/>
						</g>
					</g>
					<g id="group69-139" transform="translate(38.5,-28.0441)" v:mID="69" v:groupContext="group">
						<title>工作表.69</title>
						<g id="shape70-140" v:mID="70" v:groupContext="shape">
							<title>工作表.70</title>
							<rect x="0" y="736.251" width="186.306" height="105.638" class="st2"/>
						</g>
					</g>
					<g id="shape71-142" v:mID="71" v:groupContext="shape" transform="translate(95.6532,-134.983)">
						<title>工作表.71</title>
						<desc>Crack500</desc>
						<v:textBlock v:margins="rect(0,0,0,0)" v:tabSpace="42.5197"/>
						<v:textRect cx="36" cy="836.49" width="72.01" height="10.8"/>
						<rect x="0" y="831.09" width="72" height="10.8" class="st3"/>
						<text x="16.74" y="839.19" class="st4" v:langID="2052"><v:paragraph v:horizAlign="1"/><v:tabList/>Crack500</text>					</g>
					<g id="shape72-145" v:mID="72" v:groupContext="shape" transform="translate(38.5,-28.0441)">
						<title>工作表.72</title>
						<path d="M0 841.89 L0 736.25 L0 841.89 Z" class="st5"/>
						<path d="M0 841.89 L0 736.25" class="st6"/>
					</g>
					<g id="shape73-148" v:mID="73" v:groupContext="shape" transform="translate(38.5,-28.0441)">
						<title>工作表.73</title>
						<path d="M0 841.89 L186.31 841.89 L0 841.89 Z" class="st5"/>
						<path d="M0 841.89 L186.31 841.89" class="st7"/>
					</g>
					<g id="group74-151" transform="translate(27.7774,-2.27374E-13)" v:mID="74" v:groupContext="group">
						<title>matplotlib.axis_3</title>
						<g id="group75-152" transform="translate(-6.99441E-13,-0.086087)" v:mID="75" v:groupContext="group">
							<title>xtick_6</title>
							<g id="shape76-153" v:mID="76" v:groupContext="shape"
									transform="translate(-390.736,98.5452) rotate(-28)">
								<title>工作表.76</title>
								<desc>SeaFormer</desc>
								<v:textBlock v:margins="rect(0,0,0,0)" v:tabSpace="42.5197"/>
								<v:textRect cx="36" cy="837.09" width="72.01" height="9.6"/>
								<rect x="0" y="832.29" width="72" height="9.6" class="st3"/>
								<text x="0" y="839.49" class="st8" v:langID="2052"><v:paragraph/><v:tabList/>SeaFormer</text>							</g>
						</g>
						<g id="group77-156" transform="translate(32.1677,2.27374E-13)" v:mID="77" v:groupContext="group">
							<title>xtick_7</title>
							<g id="shape78-157" v:mID="78" v:groupContext="shape"
									transform="translate(-390.736,98.5452) rotate(-28)">
								<title>工作表.78</title>
								<desc>SegFormer</desc>
								<v:textBlock v:margins="rect(0,0,0,0)" v:tabSpace="42.5197"/>
								<v:textRect cx="36" cy="837.09" width="72.01" height="9.6"/>
								<rect x="0" y="832.29" width="72" height="9.6" class="st3"/>
								<text x="0" y="839.49" class="st8" v:langID="2052"><v:paragraph/><v:tabList/>SegFormer</text>							</g>
						</g>
						<g id="group79-160" transform="translate(67.9509,-1.96163)" v:mID="79" v:groupContext="group">
							<title>xtick_8</title>
							<g id="shape80-161" v:mID="80" v:groupContext="shape"
									transform="translate(-390.736,98.5452) rotate(-28)">
								<title>工作表.80</title>
								<desc>MobileNet</desc>
								<v:textBlock v:margins="rect(0,0,0,0)" v:tabSpace="42.5197"/>
								<v:textRect cx="36" cy="837.09" width="72.01" height="9.6"/>
								<rect x="0" y="832.29" width="72" height="9.6" class="st3"/>
								<text x="0" y="839.49" class="st8" v:langID="2052"><v:paragraph/><v:tabList/>MobileNet</text>							</g>
						</g>
						<g id="group81-164" transform="translate(113.516,-9.0618)" v:mID="81" v:groupContext="group">
							<title>xtick_9</title>
							<g id="shape82-165" v:mID="82" v:groupContext="shape"
									transform="translate(-390.736,98.5452) rotate(-28)">
								<title>工作表.82</title>
								<desc>U-Net</desc>
								<v:textBlock v:margins="rect(0,0,0,0)" v:tabSpace="42.5197"/>
								<v:textRect cx="20" cy="837.09" width="40" height="9.6"/>
								<rect x="0" y="832.29" width="40" height="9.6" class="st3"/>
								<text x="0" y="839.49" class="st8" v:langID="2052"><v:paragraph/><v:tabList/>U-Net</text>							</g>
						</g>
						<g id="group83-168" transform="translate(134.34,-3.00679)" v:mID="83" v:groupContext="group">
							<title>xtick_10</title>
							<g id="shape84-169" v:mID="84" v:groupContext="shape"
									transform="translate(-390.736,98.5452) rotate(-28)">
								<title>工作表.84</title>
								<desc>CrackLite</desc>
								<v:textBlock v:margins="rect(0,0,0,0)" v:tabSpace="42.5197"/>
								<v:textRect cx="36" cy="837.09" width="72.01" height="9.6"/>
								<rect x="0" y="832.29" width="72" height="9.6" class="st3"/>
								<text x="0" y="839.49" class="st8" v:langID="2052"><v:paragraph/><v:tabList/>CrackLite</text>							</g>
						</g>
					</g>
					<g id="group85-172" transform="translate(5.9952E-14,-44.789)" v:mID="85" v:groupContext="group">
						<title>matplotlib.axis_4</title>
						<g id="group86-173" v:mID="86" v:groupContext="group">
							<title>ytick_7</title>
							<g id="shape87-174" v:mID="87" v:groupContext="shape" transform="translate(35.5,-5.26312)">
								<title>m3b25fb5813</title>
								<path d="M3 841.89 L0 841.89 L3 841.89 Z" class="st9"/>
								<path d="M3 841.89 L0 841.89" class="st10"/>
							</g>
							<g id="shape88-177" v:mID="88" v:groupContext="shape">
								<title>工作表.88</title>
								<desc>0.78</desc>
								<v:textBlock v:margins="rect(0,0,0,0)" v:tabSpace="42.5197"/>
								<v:textRect cx="16" cy="837.09" width="32" height="9.6"/>
								<rect x="0" y="832.29" width="32" height="9.6" class="st3"/>
								<text x="16.43" y="839.49" class="st8" v:langID="2052"><v:paragraph v:horizAlign="2"/><v:tabList/>0.78</text>							</g>
						</g>
						<g id="group89-180" transform="translate(-4.03677E-13,-22.008)" v:mID="89" v:groupContext="group">
							<title>ytick_8</title>
							<g id="shape90-181" v:mID="90" v:groupContext="shape" transform="translate(35.5,-5.26312)">
								<title>m3b25fb5813</title>
								<path d="M3 841.89 L0 841.89 L3 841.89 Z" class="st9"/>
								<path d="M3 841.89 L0 841.89" class="st10"/>
							</g>
							<g id="shape91-184" v:mID="91" v:groupContext="shape">
								<title>工作表.91</title>
								<desc>0.79</desc>
								<v:textBlock v:margins="rect(0,0,0,0)" v:tabSpace="42.5197"/>
								<v:textRect cx="16" cy="837.09" width="32" height="9.6"/>
								<rect x="0" y="832.29" width="32" height="9.6" class="st3"/>
								<text x="16.43" y="839.49" class="st8" v:langID="2052"><v:paragraph v:horizAlign="2"/><v:tabList/>0.79</text>							</g>
						</g>
						<g id="group92-187" transform="translate(-4.03677E-13,-44.016)" v:mID="92" v:groupContext="group">
							<title>ytick_9</title>
							<g id="shape93-188" v:mID="93" v:groupContext="shape" transform="translate(35.5,-5.26312)">
								<title>m3b25fb5813</title>
								<path d="M3 841.89 L0 841.89 L3 841.89 Z" class="st9"/>
								<path d="M3 841.89 L0 841.89" class="st10"/>
							</g>
							<g id="shape94-191" v:mID="94" v:groupContext="shape">
								<title>工作表.94</title>
								<desc>0.80</desc>
								<v:textBlock v:margins="rect(0,0,0,0)" v:tabSpace="42.5197"/>
								<v:textRect cx="16" cy="837.09" width="32" height="9.6"/>
								<rect x="0" y="832.29" width="32" height="9.6" class="st3"/>
								<text x="16.43" y="839.49" class="st8" v:langID="2052"><v:paragraph v:horizAlign="2"/><v:tabList/>0.80</text>							</g>
						</g>
						<g id="group95-194" transform="translate(-4.03677E-13,-66.024)" v:mID="95" v:groupContext="group">
							<title>ytick_10</title>
							<g id="shape96-195" v:mID="96" v:groupContext="shape" transform="translate(35.5,-5.26312)">
								<title>m3b25fb5813</title>
								<path d="M3 841.89 L0 841.89 L3 841.89 Z" class="st9"/>
								<path d="M3 841.89 L0 841.89" class="st10"/>
							</g>
							<g id="shape97-198" v:mID="97" v:groupContext="shape">
								<title>工作表.97</title>
								<desc>0.81</desc>
								<v:textBlock v:margins="rect(0,0,0,0)" v:tabSpace="42.5197"/>
								<v:textRect cx="16" cy="837.09" width="32" height="9.6"/>
								<rect x="0" y="832.29" width="32" height="9.6" class="st3"/>
								<text x="16.43" y="839.49" class="st8" v:langID="2052"><v:paragraph v:horizAlign="2"/><v:tabList/>0.81</text>							</g>
						</g>
						<g id="shape98-201" v:mID="98" v:groupContext="shape" transform="translate(-826.547,823.815) rotate(-90)">
							<title>工作表.98</title>
							<desc>mIoU</desc>
							<v:textBlock v:margins="rect(0,0,0,0)" v:tabSpace="42.5197"/>
							<v:textRect cx="18" cy="836.49" width="36" height="10.8"/>
							<rect x="0" y="831.09" width="36" height="10.8" class="st3"/>
							<text x="7.25" y="839.19" class="st4" v:langID="2052"><v:paragraph v:horizAlign="1"/><v:tabList/>mIoU</text>						</g>
					</g>
					<g id="shape99-204" v:mID="99" v:groupContext="shape" transform="translate(47.4297,-44.5421)">
						<title>工作表.99</title>
						<desc>0.7766</desc>
						<v:textBlock v:margins="rect(0,0,0,0)" v:tabSpace="42.5197"/>
						<v:textRect cx="19.8" cy="837.93" width="39.6" height="7.92"/>
						<rect x="0" y="833.97" width="39.6" height="7.92" class="st3"/>
						<text x="9.71" y="839.91" class="st11" v:langID="2052"><v:paragraph v:horizAlign="1"/><v:tabList/>0.7766</text>					</g>
					<g id="shape100-207" v:mID="100" v:groupContext="shape" transform="translate(79.6414,-46.5228)">
						<title>工作表.100</title>
						<desc>0.7775</desc>
						<v:textBlock v:margins="rect(0,0,0,0)" v:tabSpace="42.5197"/>
						<v:textRect cx="19.8" cy="837.93" width="39.6" height="7.92"/>
						<rect x="0" y="833.97" width="39.6" height="7.92" class="st3"/>
						<text x="9.71" y="839.91" class="st11" v:langID="2052"><v:paragraph v:horizAlign="1"/><v:tabList/>0.7775</text>					</g>
					<g id="shape101-210" v:mID="101" v:groupContext="shape" transform="translate(111.853,-63.9091)">
						<title>工作表.101</title>
						<desc>0.7854</desc>
						<v:textBlock v:margins="rect(0,0,0,0)" v:tabSpace="42.5197"/>
						<v:textRect cx="19.8" cy="837.93" width="39.6" height="7.92"/>
						<rect x="0" y="833.97" width="39.6" height="7.92" class="st3"/>
						<text x="9.71" y="839.91" class="st11" v:langID="2052"><v:paragraph v:horizAlign="1"/><v:tabList/>0.7854</text>					</g>
					<g id="shape102-213" v:mID="102" v:groupContext="shape" transform="translate(144.065,-113.207)">
						<title>工作表.102</title>
						<desc>0.8078</desc>
						<v:textBlock v:margins="rect(0,0,0,0)" v:tabSpace="42.5197"/>
						<v:textRect cx="19.8" cy="837.93" width="39.6" height="7.92"/>
						<rect x="0" y="833.97" width="39.6" height="7.92" class="st3"/>
						<text x="9.71" y="839.91" class="st11" v:langID="2052"><v:paragraph v:horizAlign="1"/><v:tabList/>0.8078</text>					</g>
					<g id="shape103-216" v:mID="103" v:groupContext="shape" transform="translate(176.277,-104.184)">
						<title>工作表.103</title>
						<desc>0.8037</desc>
						<v:textBlock v:margins="rect(0,0,0,0)" v:tabSpace="42.5197"/>
						<v:textRect cx="19.8" cy="837.93" width="39.6" height="7.92"/>
						<rect x="0" y="833.97" width="39.6" height="7.92" class="st3"/>
						<text x="9.71" y="839.91" class="st11" v:langID="2052"><v:paragraph v:horizAlign="1"/><v:tabList/>0.8037</text>					</g>
					<g id="shape104-219" v:mID="104" v:groupContext="shape" transform="translate(46.9685,-28.0441)">
						<title>工作表.104</title>
						<path d="M0 841.89 L169.37 841.89 L0 841.89 Z" class="st5"/>
						<path d="M0 841.89 L169.37 841.89" class="st7"/>
					</g>
				</g>
				<g id="group105-222" transform="translate(456.135,-6.56759)" v:mID="105" v:groupContext="group">
					<title>axes_3</title>
					<g id="shape106-223" v:mID="106" v:groupContext="shape" transform="translate(30.5,-28.0441)">
						<title>工作表.106</title>
						<rect x="0" y="736.251" width="186.306" height="105.638" class="st1"/>
					</g>
					<g id="group107-225" transform="translate(30.5,-28.0441)" v:mID="107" v:groupContext="group">
						<title>p8184ef7ea0</title>
						<g id="shape108-226" v:mID="108" v:groupContext="shape">
							<title>工作表.108</title>
							<rect x="0" y="736.251" width="186.306" height="105.638" class="st2"/>
						</g>
					</g>
					<g id="group109-228" transform="translate(30.5,-28.0441)" v:mID="109" v:groupContext="group">
						<title>工作表.109</title>
						<g id="shape110-229" v:mID="110" v:groupContext="shape">
							<title>工作表.110</title>
							<rect x="0" y="736.251" width="186.306" height="105.638" class="st2"/>
						</g>
					</g>
					<g id="group111-231" transform="translate(30.5,-28.0441)" v:mID="111" v:groupContext="group">
						<title>工作表.111</title>
						<g id="shape112-232" v:mID="112" v:groupContext="shape">
							<title>工作表.112</title>
							<rect x="0" y="736.251" width="186.306" height="105.638" class="st2"/>
						</g>
					</g>
					<g id="group113-234" transform="translate(30.5,-28.0441)" v:mID="113" v:groupContext="group">
						<title>工作表.113</title>
						<g id="shape114-235" v:mID="114" v:groupContext="shape">
							<title>工作表.114</title>
							<rect x="0" y="736.251" width="186.306" height="105.638" class="st2"/>
						</g>
					</g>
					<g id="group115-237" transform="translate(30.5,-28.0441)" v:mID="115" v:groupContext="group">
						<title>工作表.115</title>
						<g id="shape116-238" v:mID="116" v:groupContext="shape">
							<title>工作表.116</title>
							<rect x="0" y="736.251" width="186.306" height="105.638" class="st2"/>
						</g>
					</g>
					<g id="group117-240" transform="translate(90.6478,-134.983)" v:mID="117" v:groupContext="group">
						<title>text_36</title>
						<g id="shape118-241" v:mID="118" v:groupContext="shape" transform="translate(0,-9.65081)">
							<title>工作表.118</title>
							<desc>Concrete-Crack-</desc>
							<v:textBlock v:margins="rect(0,0,0,0)" v:tabSpace="42.5197"/>
							<v:textRect cx="67.5" cy="836.49" width="135" height="10.8"/>
							<rect x="0" y="831.09" width="135" height="10.8" class="st3"/>
							<text x="0" y="839.19" class="st4" v:langID="2052"><v:paragraph/><v:tabList/>Concrete-Crack-</text>						</g>
						<g id="shape119-244" v:mID="119" v:groupContext="shape" transform="translate(5.23828,0)">
							<title>工作表.119</title>
							<desc>Segmentation</desc>
							<v:textBlock v:margins="rect(0,0,0,0)" v:tabSpace="42.5197"/>
							<v:textRect cx="54" cy="836.49" width="108" height="10.8"/>
							<rect x="0" y="831.09" width="108" height="10.8" class="st3"/>
							<text x="0" y="839.19" class="st4" v:langID="2052"><v:paragraph/><v:tabList/>Segmentation</text>						</g>
					</g>
					<g id="shape120-247" v:mID="120" v:groupContext="shape" transform="translate(30.5,-28.0441)">
						<title>工作表.120</title>
						<path d="M0 841.89 L0 736.25 L0 841.89 Z" class="st5"/>
						<path d="M0 841.89 L0 736.25" class="st6"/>
					</g>
					<g id="shape121-250" v:mID="121" v:groupContext="shape" transform="translate(30.5,-28.0441)">
						<title>工作表.121</title>
						<path d="M0 841.89 L186.31 841.89 L0 841.89 Z" class="st5"/>
						<path d="M0 841.89 L186.31 841.89" class="st7"/>
					</g>
					<g id="group122-253" transform="translate(19.7774,3.41061E-13)" v:mID="122" v:groupContext="group">
						<title>matplotlib.axis_5</title>
						<g id="group123-254" transform="translate(-1.28297E-12,-0.086087)" v:mID="123" v:groupContext="group">
							<title>xtick_11</title>
							<g id="shape124-255" v:mID="124" v:groupContext="shape"
									transform="translate(-390.736,98.5452) rotate(-28)">
								<title>工作表.124</title>
								<desc>SeaFormer</desc>
								<v:textBlock v:margins="rect(0,0,0,0)" v:tabSpace="42.5197"/>
								<v:textRect cx="36" cy="837.09" width="72" height="9.6"/>
								<rect x="0" y="832.29" width="72" height="9.6" class="st3"/>
								<text x="0" y="839.49" class="st8" v:langID="2052"><v:paragraph/><v:tabList/>SeaFormer</text>							</g>
						</g>
						<g id="group125-258" transform="translate(32.1677,-5.68434E-13)" v:mID="125" v:groupContext="group">
							<title>xtick_12</title>
							<g id="shape126-259" v:mID="126" v:groupContext="shape"
									transform="translate(-390.736,98.5452) rotate(-28)">
								<title>工作表.126</title>
								<desc>SegFormer</desc>
								<v:textBlock v:margins="rect(0,0,0,0)" v:tabSpace="42.5197"/>
								<v:textRect cx="36" cy="837.09" width="72" height="9.6"/>
								<rect x="0" y="832.29" width="72" height="9.6" class="st3"/>
								<text x="-0" y="839.49" class="st8" v:langID="2052"><v:paragraph/><v:tabList/>SegFormer</text>							</g>
						</g>
						<g id="group127-262" transform="translate(67.9509,-1.96163)" v:mID="127" v:groupContext="group">
							<title>xtick_13</title>
							<g id="shape128-263" v:mID="128" v:groupContext="shape"
									transform="translate(-390.736,98.5452) rotate(-28)">
								<title>工作表.128</title>
								<desc>MobileNet</desc>
								<v:textBlock v:margins="rect(0,0,0,0)" v:tabSpace="42.5197"/>
								<v:textRect cx="36" cy="837.09" width="72" height="9.6"/>
								<rect x="0" y="832.29" width="72" height="9.6" class="st3"/>
								<text x="0" y="839.49" class="st8" v:langID="2052"><v:paragraph/><v:tabList/>MobileNet</text>							</g>
						</g>
						<g id="group129-266" transform="translate(113.516,-9.0618)" v:mID="129" v:groupContext="group">
							<title>xtick_14</title>
							<g id="shape130-267" v:mID="130" v:groupContext="shape"
									transform="translate(-390.736,98.5452) rotate(-28)">
								<title>工作表.130</title>
								<desc>U-Net</desc>
								<v:textBlock v:margins="rect(0,0,0,0)" v:tabSpace="42.5197"/>
								<v:textRect cx="20" cy="837.09" width="40" height="9.6"/>
								<rect x="0" y="832.29" width="40" height="9.6" class="st3"/>
								<text x="-0" y="839.49" class="st8" v:langID="2052"><v:paragraph/><v:tabList/>U-Net</text>							</g>
						</g>
						<g id="group131-270" transform="translate(134.34,-3.00679)" v:mID="131" v:groupContext="group">
							<title>xtick_15</title>
							<g id="shape132-271" v:mID="132" v:groupContext="shape"
									transform="translate(-390.736,98.5452) rotate(-28)">
								<title>工作表.132</title>
								<desc>CrackLite</desc>
								<v:textBlock v:margins="rect(0,0,0,0)" v:tabSpace="42.5197"/>
								<v:textRect cx="36" cy="837.09" width="72" height="9.6"/>
								<rect x="0" y="832.29" width="72" height="9.6" class="st3"/>
								<text x="-0" y="839.49" class="st8" v:langID="2052"><v:paragraph/><v:tabList/>CrackLite</text>							</g>
						</g>
					</g>
					<g id="group133-274" transform="translate(-1.29896E-13,-33.785)" v:mID="133" v:groupContext="group">
						<title>matplotlib.axis_6</title>
						<g id="group134-275" v:mID="134" v:groupContext="group">
							<title>ytick_11</title>
							<g id="shape135-276" v:mID="135" v:groupContext="shape" transform="translate(27.5,-5.26313)">
								<title>m3b25fb5813</title>
								<path d="M3 841.89 L0 841.89 L3 841.89 Z" class="st9"/>
								<path d="M3 841.89 L0 841.89" class="st10"/>
							</g>
							<g id="shape136-279" v:mID="136" v:groupContext="shape">
								<title>工作表.136</title>
								<desc>0.2</desc>
								<v:textBlock v:margins="rect(0,0,0,0)" v:tabSpace="42.5197"/>
								<v:textRect cx="12" cy="837.09" width="24.01" height="9.6"/>
								<rect x="0" y="832.29" width="24" height="9.6" class="st3"/>
								<text x="12.88" y="839.49" class="st8" v:langID="2052"><v:paragraph v:horizAlign="2"/><v:tabList/>0.2</text>							</g>
						</g>
						<g id="group137-282" transform="translate(3.23741E-13,-22.008)" v:mID="137" v:groupContext="group">
							<title>ytick_12</title>
							<g id="shape138-283" v:mID="138" v:groupContext="shape" transform="translate(27.5,-5.26313)">
								<title>m3b25fb5813</title>
								<path d="M3 841.89 L0 841.89 L3 841.89 Z" class="st9"/>
								<path d="M3 841.89 L0 841.89" class="st10"/>
							</g>
							<g id="shape139-286" v:mID="139" v:groupContext="shape">
								<title>工作表.139</title>
								<desc>0.4</desc>
								<v:textBlock v:margins="rect(0,0,0,0)" v:tabSpace="42.5197"/>
								<v:textRect cx="12" cy="837.09" width="24.01" height="9.6"/>
								<rect x="0" y="832.29" width="24" height="9.6" class="st3"/>
								<text x="12.88" y="839.49" class="st8" v:langID="2052"><v:paragraph v:horizAlign="2"/><v:tabList/>0.4</text>							</g>
						</g>
						<g id="group140-289" transform="translate(3.23741E-13,-44.016)" v:mID="140" v:groupContext="group">
							<title>ytick_13</title>
							<g id="shape141-290" v:mID="141" v:groupContext="shape" transform="translate(27.5,-5.26313)">
								<title>m3b25fb5813</title>
								<path d="M3 841.89 L0 841.89 L3 841.89 Z" class="st9"/>
								<path d="M3 841.89 L0 841.89" class="st10"/>
							</g>
							<g id="shape142-293" v:mID="142" v:groupContext="shape">
								<title>工作表.142</title>
								<desc>0.6</desc>
								<v:textBlock v:margins="rect(0,0,0,0)" v:tabSpace="42.5197"/>
								<v:textRect cx="12" cy="837.09" width="24.01" height="9.6"/>
								<rect x="0" y="832.29" width="24" height="9.6" class="st3"/>
								<text x="12.88" y="839.49" class="st8" v:langID="2052"><v:paragraph v:horizAlign="2"/><v:tabList/>0.6</text>							</g>
						</g>
						<g id="group143-296" transform="translate(3.23741E-13,-66.024)" v:mID="143" v:groupContext="group">
							<title>ytick_14</title>
							<g id="shape144-297" v:mID="144" v:groupContext="shape" transform="translate(27.5,-5.26313)">
								<title>m3b25fb5813</title>
								<path d="M3 841.89 L0 841.89 L3 841.89 Z" class="st9"/>
								<path d="M3 841.89 L0 841.89" class="st10"/>
							</g>
							<g id="shape145-300" v:mID="145" v:groupContext="shape">
								<title>工作表.145</title>
								<desc>0.8</desc>
								<v:textBlock v:margins="rect(0,0,0,0)" v:tabSpace="42.5197"/>
								<v:textRect cx="12" cy="837.09" width="24.01" height="9.6"/>
								<rect x="0" y="832.29" width="24" height="9.6" class="st3"/>
								<text x="12.88" y="839.49" class="st8" v:langID="2052"><v:paragraph v:horizAlign="2"/><v:tabList/>0.8</text>							</g>
						</g>
						<g id="group146-303" transform="translate(3.23741E-13,-88.032)" v:mID="146" v:groupContext="group">
							<title>ytick_15</title>
							<g id="shape147-304" v:mID="147" v:groupContext="shape" transform="translate(27.5,-5.26313)">
								<title>m3b25fb5813</title>
								<path d="M3 841.89 L0 841.89 L3 841.89 Z" class="st9"/>
								<path d="M3 841.89 L0 841.89" class="st10"/>
							</g>
							<g id="shape148-307" v:mID="148" v:groupContext="shape">
								<title>工作表.148</title>
								<desc>1.0</desc>
								<v:textBlock v:margins="rect(0,0,0,0)" v:tabSpace="42.5197"/>
								<v:textRect cx="12" cy="837.09" width="24.01" height="9.6"/>
								<rect x="0" y="832.29" width="24" height="9.6" class="st3"/>
								<text x="12.88" y="839.49" class="st8" v:langID="2052"><v:paragraph v:horizAlign="2"/><v:tabList/>1.0</text>							</g>
						</g>
						<g id="shape149-310" v:mID="149" v:groupContext="shape" transform="translate(-830.099,812.811) rotate(-90)">
							<title>工作表.149</title>
							<desc>mIoU</desc>
							<v:textBlock v:margins="rect(0,0,0,0)" v:tabSpace="42.5197"/>
							<v:textRect cx="18" cy="836.49" width="36.01" height="10.8"/>
							<rect x="0" y="831.09" width="36" height="10.8" class="st3"/>
							<text x="7.25" y="839.19" class="st4" v:langID="2052"><v:paragraph v:horizAlign="1"/><v:tabList/>mIoU</text>						</g>
					</g>
					<g id="shape150-313" v:mID="150" v:groupContext="shape" transform="translate(39.4297,-113.735)">
						<title>工作表.150</title>
						<desc>0.8668</desc>
						<v:textBlock v:margins="rect(0,0,0,0)" v:tabSpace="42.5197"/>
						<v:textRect cx="19.8" cy="837.93" width="39.6" height="7.92"/>
						<rect x="0" y="833.97" width="39.6" height="7.92" class="st3"/>
						<text x="9.71" y="839.91" class="st11" v:langID="2052"><v:paragraph v:horizAlign="1"/><v:tabList/>0.8668</text>					</g>
					<g id="shape151-316" v:mID="151" v:groupContext="shape" transform="translate(71.6414,-44.5531)">
						<title>工作表.151</title>
						<desc>0.2381</desc>
						<v:textBlock v:margins="rect(0,0,0,0)" v:tabSpace="42.5197"/>
						<v:textRect cx="19.8" cy="837.93" width="39.6" height="7.92"/>
						<rect x="0" y="833.97" width="39.6" height="7.92" class="st3"/>
						<text x="9.71" y="839.91" class="st11" v:langID="2052"><v:paragraph v:horizAlign="1"/><v:tabList/>0.2381</text>					</g>
					<g id="shape152-319" v:mID="152" v:groupContext="shape" transform="translate(103.853,-114.748)">
						<title>工作表.152</title>
						<desc>0.8760</desc>
						<v:textBlock v:margins="rect(0,0,0,0)" v:tabSpace="42.5197"/>
						<v:textRect cx="19.8" cy="837.93" width="39.6" height="7.92"/>
						<rect x="0" y="833.97" width="39.6" height="7.92" class="st3"/>
						<text x="9.71" y="839.91" class="st11" v:langID="2052"><v:paragraph v:horizAlign="1"/><v:tabList/>0.8760</text>					</g>
					<g id="shape153-322" v:mID="153" v:groupContext="shape" transform="translate(136.065,-114.495)">
						<title>工作表.153</title>
						<desc>0.8737</desc>
						<v:textBlock v:margins="rect(0,0,0,0)" v:tabSpace="42.5197"/>
						<v:textRect cx="19.8" cy="837.93" width="39.6" height="7.92"/>
						<rect x="0" y="833.97" width="39.6" height="7.92" class="st3"/>
						<text x="9.71" y="839.91" class="st11" v:langID="2052"><v:paragraph v:horizAlign="1"/><v:tabList/>0.8737</text>					</g>
					<g id="shape154-325" v:mID="154" v:groupContext="shape" transform="translate(168.277,-113.911)">
						<title>工作表.154</title>
						<desc>0.8684</desc>
						<v:textBlock v:margins="rect(0,0,0,0)" v:tabSpace="42.5197"/>
						<v:textRect cx="19.8" cy="837.93" width="39.6" height="7.92"/>
						<rect x="0" y="833.97" width="39.6" height="7.92" class="st3"/>
						<text x="9.71" y="839.91" class="st11" v:langID="2052"><v:paragraph v:horizAlign="1"/><v:tabList/>0.8684</text>					</g>
					<g id="shape155-328" v:mID="155" v:groupContext="shape" transform="translate(38.9685,-28.0441)">
						<title>工作表.155</title>
						<path d="M0 841.89 L169.37 841.89 L0 841.89 Z" class="st5"/>
						<path d="M0 841.89 L169.37 841.89" class="st7"/>
					</g>
				</g>
			</g>
		</g>
	</g>
</svg>
