<?xml version="1.0" encoding="UTF-8" standalone="no"?>
<!DOCTYPE svg PUBLIC "-//W3C//DTD SVG 1.1//EN" "http://www.w3.org/Graphics/SVG/1.1/DTD/svg11.dtd">
<!-- 由 Microsoft Visio, SVG Export 生成 fig8_efficiency_tradeoff.svg Page-1 -->
<svg xmlns="http://www.w3.org/2000/svg" xmlns:xlink="http://www.w3.org/1999/xlink" xmlns:ev="http://www.w3.org/2001/xml-events"
		xmlns:v="http://schemas.microsoft.com/visio/2003/SVGExtensions/" width="23.8031in" height="22.8858in"
		viewBox="0 0 1713.83 1647.78" xml:space="preserve" color-interpolation-filters="sRGB" class="st16">
	<v:documentProperties v:langID="2052" v:metric="true" v:viewMarkup="false">
		<v:userDefs>
			<v:ud v:nameU="msvNoAutoConnect" v:val="VT0(1):26"/>
		</v:userDefs>
	</v:documentProperties>

	<style type="text/css">
	<![CDATA[
		.st1 {fill:#ffffff;stroke:none;stroke-linecap:butt;stroke-width:1}
		.st2 {fill:#000000;stroke:none;stroke-linecap:butt;stroke-width:0.75}
		.st3 {fill:#000000}
		.st4 {stroke:#000000;stroke-linecap:butt;stroke-width:0.8}
		.st5 {fill:none;stroke:none;stroke-linecap:butt;stroke-width:0.75}
		.st6 {fill:#000000;font-family:Arial;font-size:0.833336em}
		.st7 {fill:#000000;font-family:Arial;font-size:1.00001em}
		.st8 {fill:#000000;font-family:Arial;font-size:1.00001em;font-weight:bold}
		.st9 {fill:none}
		.st10 {stroke:#000000;stroke-width:0.8}
		.st11 {fill:#1a1a1a;font-family:Arial;font-size:0.916672em;font-weight:bold}
		.st12 {fill:#1a1a1a;font-family:Arial;font-size:0.916672em}
		.st13 {font-size:0.699992em}
		.st14 {stroke:#000000;stroke-linecap:butt;stroke-width:0.6}
		.st15 {fill:#000000;font-family:Arial;font-size:1.5em}
		.st16 {fill:none;fill-rule:evenodd;font-size:12px;overflow:visible;stroke-linecap:square;stroke-miterlimit:3}
	]]>
	</style>

	<g v:mID="0" v:index="1" v:groupContext="foregroundPage">
		<title>页-1</title>
		<v:pageProperties v:drawingScale="0.0393701" v:pageScale="0.0393701" v:drawingUnits="24" v:shadowOffsetX="9"
				v:shadowOffsetY="-9"/>
		<g id="group94-1" transform="translate(353.197,-646.299)" v:mID="94" v:groupContext="group">
			<title>工作表.94</title>
			<g id="group95-2" v:mID="95" v:groupContext="group">
				<title>figure_1</title>
				<g id="group97-3" transform="translate(-2.07834E-12,-9.14269)" v:mID="97" v:groupContext="group">
					<title>axes_1</title>
					<g id="shape98-4" v:mID="98" v:groupContext="shape" transform="translate(116,-35.7959)">
						<title>工作表.98</title>
						<rect x="0" y="1301.47" width="230.75" height="346.314" class="st1"/>
					</g>
					<g id="group99-6" transform="translate(111,0)" v:mID="99" v:groupContext="group">
						<title>matplotlib.axis_1</title>
						<g id="group100-7" transform="translate(-1.8705E-12,-18.8925)" v:mID="100" v:groupContext="group">
							<title>xtick_1</title>
							<g id="group101-8" transform="translate(5,-16.9034)" v:mID="101" v:groupContext="group">
								<title>pf71a209145</title>
								<g id="shape102-9" v:mID="102" v:groupContext="shape">
									<title>工作表.102</title>
									<rect x="0" y="1301.47" width="230.75" height="346.314" class="st2"/>
								</g>
							</g>
							<g id="group103-11" transform="translate(5,-13.4553)" v:mID="103" v:groupContext="group">
								<title>line2d_2</title>
								<g id="shape104-12" v:mID="104" v:groupContext="shape">
									<title>m23edc67fa8</title>
									<path d="M0 1644.33 L0 1647.78 L0 1644.33 Z" class="st3"/>
									<path d="M0 1644.33 L0 1647.78" class="st4"/>
								</g>
							</g>
							<g id="shape105-15" v:mID="105" v:groupContext="shape">
								<title>工作表.105</title>
								<desc>0</desc>
								<v:textBlock v:margins="rect(0,0,0,0)" v:tabSpace="42.5197"/>
								<v:textRect cx="5" cy="1641.87" width="10" height="11.822"/>
								<rect x="0" y="1635.96" width="10" height="11.822" class="st5"/>
								<text x="2.22" y="1644.87" class="st6" v:langID="2052"><v:paragraph v:horizAlign="1"/><v:tabList/>0</text>							</g>
						</g>
						<g id="group106-18" transform="translate(5,-18.8925)" v:mID="106" v:groupContext="group">
							<title>xtick_2</title>
							<g id="group107-19" transform="translate(-1.43885E-12,-16.9034)" v:mID="107" v:groupContext="group">
								<title>pf71a209145</title>
								<g id="shape108-20" v:mID="108" v:groupContext="shape">
									<title>工作表.108</title>
									<rect x="0" y="1301.47" width="230.75" height="346.314" class="st2"/>
								</g>
							</g>
							<g id="shape109-22" v:mID="109" v:groupContext="shape" transform="translate(42.7315,-13.4553)">
								<title>m23edc67fa8</title>
								<path d="M0 1644.33 L0 1647.78 L0 1644.33 Z" class="st3"/>
								<path d="M0 1644.33 L0 1647.78" class="st4"/>
							</g>
							<g id="shape110-25" v:mID="110" v:groupContext="shape" transform="translate(32.7315,0)">
								<title>工作表.110</title>
								<desc>20</desc>
								<v:textBlock v:margins="rect(0,0,0,0)" v:tabSpace="42.5197"/>
								<v:textRect cx="10" cy="1641.87" width="20" height="11.822"/>
								<rect x="0" y="1635.96" width="20" height="11.822" class="st5"/>
								<text x="4.44" y="1644.87" class="st6" v:langID="2052"><v:paragraph v:horizAlign="1"/><v:tabList/>20</text>							</g>
						</g>
						<g id="group111-28" transform="translate(5,-18.8925)" v:mID="111" v:groupContext="group">
							<title>xtick_3</title>
							<g id="group112-29" transform="translate(-1.43885E-12,-16.9034)" v:mID="112" v:groupContext="group">
								<title>pf71a209145</title>
								<g id="shape113-30" v:mID="113" v:groupContext="shape">
									<title>工作表.113</title>
									<rect x="0" y="1301.47" width="230.75" height="346.314" class="st2"/>
								</g>
							</g>
							<g id="shape114-32" v:mID="114" v:groupContext="shape" transform="translate(85.4631,-13.4553)">
								<title>m23edc67fa8</title>
								<path d="M0 1644.33 L0 1647.78 L0 1644.33 Z" class="st3"/>
								<path d="M0 1644.33 L0 1647.78" class="st4"/>
							</g>
							<g id="shape115-35" v:mID="115" v:groupContext="shape" transform="translate(75.4631,0)">
								<title>工作表.115</title>
								<desc>40</desc>
								<v:textBlock v:margins="rect(0,0,0,0)" v:tabSpace="42.5197"/>
								<v:textRect cx="10" cy="1641.87" width="20" height="11.822"/>
								<rect x="0" y="1635.96" width="20" height="11.822" class="st5"/>
								<text x="4.44" y="1644.87" class="st6" v:langID="2052"><v:paragraph v:horizAlign="1"/><v:tabList/>40</text>							</g>
						</g>
						<g id="group116-38" transform="translate(5,-18.8925)" v:mID="116" v:groupContext="group">
							<title>xtick_4</title>
							<g id="group117-39" transform="translate(-1.43885E-12,-16.9034)" v:mID="117" v:groupContext="group">
								<title>pf71a209145</title>
								<g id="shape118-40" v:mID="118" v:groupContext="shape">
									<title>工作表.118</title>
									<rect x="0" y="1301.47" width="230.75" height="346.314" class="st2"/>
								</g>
							</g>
							<g id="shape119-42" v:mID="119" v:groupContext="shape" transform="translate(128.195,-13.4553)">
								<title>m23edc67fa8</title>
								<path d="M0 1644.33 L0 1647.78 L0 1644.33 Z" class="st3"/>
								<path d="M0 1644.33 L0 1647.78" class="st4"/>
							</g>
							<g id="shape120-45" v:mID="120" v:groupContext="shape" transform="translate(118.195,0)">
								<title>工作表.120</title>
								<desc>60</desc>
								<v:textBlock v:margins="rect(0,0,0,0)" v:tabSpace="42.5197"/>
								<v:textRect cx="10" cy="1641.87" width="20" height="11.822"/>
								<rect x="0" y="1635.96" width="20" height="11.822" class="st5"/>
								<text x="4.44" y="1644.87" class="st6" v:langID="2052"><v:paragraph v:horizAlign="1"/><v:tabList/>60</text>							</g>
						</g>
						<g id="group121-48" transform="translate(5,-18.8925)" v:mID="121" v:groupContext="group">
							<title>xtick_5</title>
							<g id="group122-49" transform="translate(-1.43885E-12,-16.9034)" v:mID="122" v:groupContext="group">
								<title>pf71a209145</title>
								<g id="shape123-50" v:mID="123" v:groupContext="shape">
									<title>工作表.123</title>
									<rect x="0" y="1301.47" width="230.75" height="346.314" class="st2"/>
								</g>
							</g>
							<g id="shape124-52" v:mID="124" v:groupContext="shape" transform="translate(170.926,-13.4553)">
								<title>m23edc67fa8</title>
								<path d="M0 1644.33 L0 1647.78 L0 1644.33 Z" class="st3"/>
								<path d="M0 1644.33 L0 1647.78" class="st4"/>
							</g>
							<g id="shape125-55" v:mID="125" v:groupContext="shape" transform="translate(160.926,0)">
								<title>工作表.125</title>
								<desc>80</desc>
								<v:textBlock v:margins="rect(0,0,0,0)" v:tabSpace="42.5197"/>
								<v:textRect cx="10" cy="1641.87" width="20" height="11.822"/>
								<rect x="0" y="1635.96" width="20" height="11.822" class="st5"/>
								<text x="4.44" y="1644.87" class="st6" v:langID="2052"><v:paragraph v:horizAlign="1"/><v:tabList/>80</text>							</g>
						</g>
						<g id="group126-58" transform="translate(5,-18.8925)" v:mID="126" v:groupContext="group">
							<title>xtick_6</title>
							<g id="group127-59" transform="translate(-1.43885E-12,-16.9034)" v:mID="127" v:groupContext="group">
								<title>pf71a209145</title>
								<g id="shape128-60" v:mID="128" v:groupContext="shape">
									<title>工作表.128</title>
									<rect x="0" y="1301.47" width="230.75" height="346.314" class="st2"/>
								</g>
							</g>
							<g id="shape129-62" v:mID="129" v:groupContext="shape" transform="translate(213.658,-13.4553)">
								<title>m23edc67fa8</title>
								<path d="M0 1644.33 L0 1647.78 L0 1644.33 Z" class="st3"/>
								<path d="M0 1644.33 L0 1647.78" class="st4"/>
							</g>
							<g id="shape130-65" v:mID="130" v:groupContext="shape" transform="translate(198.658,0)">
								<title>工作表.130</title>
								<desc>100</desc>
								<v:textBlock v:margins="rect(0,0,0,0)" v:tabSpace="42.5197"/>
								<v:textRect cx="15" cy="1641.87" width="30" height="11.822"/>
								<rect x="0" y="1635.96" width="30" height="11.822" class="st5"/>
								<text x="6.66" y="1644.87" class="st6" v:langID="2052"><v:paragraph v:horizAlign="1"/><v:tabList/>100</text>							</g>
						</g>
						<g id="shape131-68" v:mID="131" v:groupContext="shape" transform="translate(24.3751,0)">
							<title>工作表.131</title>
							<desc>Higher is better</desc>
							<v:textBlock v:margins="rect(0,0,0,0)" v:tabSpace="42.5197"/>
							<v:textRect cx="96" cy="1640.69" width="192" height="14.1865"/>
							<rect x="0" y="1633.59" width="192" height="14.1865" class="st5"/>
							<text x="55.31" y="1644.29" class="st7" v:langID="2052"><v:paragraph v:horizAlign="1"/><v:tabList/>Higher is better</text>						</g>
					</g>
					<g id="group132-71" transform="translate(-1.83054E-12,-63.0915)" v:mID="132" v:groupContext="group">
						<title>matplotlib.axis_2</title>
						<g id="group133-72" transform="translate(6.39488E-14,-276.168)" v:mID="133" v:groupContext="group">
							<title>ytick_1</title>
							<g id="shape134-73" v:mID="134" v:groupContext="shape">
								<title>工作表.134</title>
								<desc>CrackLite</desc>
								<v:textBlock v:margins="rect(0,0,0,0)" v:tabSpace="42.5197"/>
								<v:textRect cx="54" cy="1640.69" width="108" height="14.1865"/>
								<rect x="0" y="1633.59" width="108" height="14.1865" class="st5"/>
								<text x="53.31" y="1644.29" class="st8" v:langID="2052"><v:paragraph v:horizAlign="2"/><v:tabList/>CrackLite</text>							</g>
						</g>
						<g id="group135-76" transform="translate(6.39488E-14,-207.126)" v:mID="135" v:groupContext="group">
							<title>ytick_2</title>
							<g id="shape136-77" v:mID="136" v:groupContext="shape">
								<title>工作表.136</title>
								<desc>SeaFormer</desc>
								<v:textBlock v:margins="rect(0,0,0,0)" v:tabSpace="42.5197"/>
								<v:textRect cx="54" cy="1640.69" width="108" height="14.1865"/>
								<rect x="0" y="1633.59" width="108" height="14.1865" class="st5"/>
								<text x="47.98" y="1644.29" class="st7" v:langID="2052"><v:paragraph v:horizAlign="2"/><v:tabList/>SeaFormer</text>							</g>
						</g>
						<g id="group137-80" transform="translate(6.39488E-14,-138.012)" v:mID="137" v:groupContext="group">
							<title>ytick_3</title>
							<g id="shape138-81" v:mID="138" v:groupContext="shape">
								<title>工作表.138</title>
								<desc>SegFormer</desc>
								<v:textBlock v:margins="rect(0,0,0,0)" v:tabSpace="42.5197"/>
								<v:textRect cx="54" cy="1640.69" width="108" height="14.1865"/>
								<rect x="0" y="1633.59" width="108" height="14.1865" class="st5"/>
								<text x="47.98" y="1644.29" class="st7" v:langID="2052"><v:paragraph v:horizAlign="2"/><v:tabList/>SegFormer</text>							</g>
						</g>
						<g id="group139-84" transform="translate(6.39488E-14,-69.0419)" v:mID="139" v:groupContext="group">
							<title>ytick_4</title>
							<g id="shape140-85" v:mID="140" v:groupContext="shape">
								<title>工作表.140</title>
								<desc>MobileNet</desc>
								<v:textBlock v:margins="rect(0,0,0,0)" v:tabSpace="42.5197"/>
								<v:textRect cx="54" cy="1640.69" width="108" height="14.1865"/>
								<rect x="0" y="1633.59" width="108" height="14.1865" class="st5"/>
								<text x="53.98" y="1644.29" class="st7" v:langID="2052"><v:paragraph v:horizAlign="2"/><v:tabList/>MobileNet</text>							</g>
						</g>
						<g id="group141-88" transform="translate(48,2.27374E-13)" v:mID="141" v:groupContext="group">
							<title>ytick_5</title>
							<g id="shape142-89" v:mID="142" v:groupContext="shape">
								<title>工作表.142</title>
								<desc>U-Net</desc>
								<v:textBlock v:margins="rect(0,0,0,0)" v:tabSpace="42.5197"/>
								<v:textRect cx="30" cy="1640.69" width="60.01" height="14.1865"/>
								<rect x="0" y="1633.59" width="60" height="14.1865" class="st5"/>
								<text x="28.66" y="1644.29" class="st7" v:langID="2052"><v:paragraph v:horizAlign="2"/><v:tabList/>U-Net</text>							</g>
						</g>
					</g>
					<g id="shape143-92" v:mID="143" v:groupContext="shape" transform="translate(116,-35.7959)">
						<title>工作表.143</title>
						<path d="M0 1647.78 L230.75 1647.78 L0 1647.78 Z" class="st9"/>
						<path d="M0 1647.78 L230.75 1647.78" class="st10"/>
					</g>
					<g id="group144-95" transform="translate(116,-35.7959)" v:mID="144" v:groupContext="group">
						<title>pf71a209145</title>
						<g id="shape145-96" v:mID="145" v:groupContext="shape">
							<title>工作表.145</title>
							<rect x="0" y="1301.47" width="230.75" height="346.314" class="st2"/>
						</g>
					</g>
					<g id="group146-98" transform="translate(116,-35.7959)" v:mID="146" v:groupContext="group">
						<title>工作表.146</title>
						<g id="shape147-99" v:mID="147" v:groupContext="shape">
							<title>工作表.147</title>
							<rect x="0" y="1301.47" width="230.75" height="346.314" class="st2"/>
						</g>
					</g>
					<g id="group148-101" transform="translate(116,-35.7959)" v:mID="148" v:groupContext="group">
						<title>工作表.148</title>
						<g id="shape149-102" v:mID="149" v:groupContext="shape">
							<title>工作表.149</title>
							<rect x="0" y="1301.47" width="230.75" height="346.314" class="st2"/>
						</g>
					</g>
					<g id="group150-104" transform="translate(116,-35.7959)" v:mID="150" v:groupContext="group">
						<title>工作表.150</title>
						<g id="shape151-105" v:mID="151" v:groupContext="shape">
							<title>工作表.151</title>
							<rect x="0" y="1301.47" width="230.75" height="346.314" class="st2"/>
						</g>
					</g>
					<g id="group152-107" transform="translate(116,-35.7959)" v:mID="152" v:groupContext="group">
						<title>工作表.152</title>
						<g id="shape153-108" v:mID="153" v:groupContext="shape">
							<title>工作表.153</title>
							<rect x="0" y="1301.47" width="230.75" height="346.314" class="st2"/>
						</g>
					</g>
					<g id="shape154-110" v:mID="154" v:groupContext="shape" transform="translate(207.375,-377.95)">
						<title>工作表.154</title>
						<desc>FPS</desc>
						<v:textBlock v:margins="rect(0,0,0,0)" v:tabSpace="42.5197"/>
						<v:textRect cx="24" cy="1638.32" width="48.01" height="18.9153"/>
						<rect x="0" y="1628.86" width="48" height="18.9153" class="st5"/>
						<text x="12.33" y="1641.92" class="st7" v:langID="2052"><v:paragraph v:horizAlign="1"/><v:tabList/>FPS</text>					</g>
					<g id="shape155-113" v:mID="155" v:groupContext="shape" transform="translate(323.697,-340.977)">
						<title>工作表.155</title>
						<desc>95.21</desc>
						<v:textBlock v:margins="rect(0,0,0,0)" v:tabSpace="42.5197"/>
						<v:textRect cx="27.5" cy="1641.28" width="55" height="13.0043"/>
						<rect x="0" y="1634.78" width="55" height="13.0043" class="st5"/>
						<text x="0" y="1644.58" class="st11" v:langID="2052"><v:paragraph/><v:tabList/>95.21</text>					</g>
					<g id="shape156-116" v:mID="156" v:groupContext="shape" transform="translate(229.217,-271.942)">
						<title>工作表.156</title>
						<desc>50.99</desc>
						<v:textBlock v:margins="rect(0,0,0,0)" v:tabSpace="42.5197"/>
						<v:textRect cx="27.5" cy="1641.28" width="55" height="13.0043"/>
						<rect x="0" y="1634.78" width="55" height="13.0043" class="st5"/>
						<text x="0" y="1644.58" class="st12" v:langID="2052"><v:paragraph/><v:tabList/>50.99</text>					</g>
					<g id="shape157-119" v:mID="157" v:groupContext="shape" transform="translate(172.128,-202.9)">
						<title>工作表.157</title>
						<desc>24.27</desc>
						<v:textBlock v:margins="rect(0,0,0,0)" v:tabSpace="42.5197"/>
						<v:textRect cx="27.5" cy="1641.28" width="55" height="13.0043"/>
						<rect x="0" y="1634.78" width="55" height="13.0043" class="st5"/>
						<text x="0" y="1644.58" class="st12" v:langID="2052"><v:paragraph/><v:tabList/>24.27</text>					</g>
					<g id="shape158-122" v:mID="158" v:groupContext="shape" transform="translate(160.868,-133.858)">
						<title>工作表.158</title>
						<desc>19.00</desc>
						<v:textBlock v:margins="rect(0,0,0,0)" v:tabSpace="42.5197"/>
						<v:textRect cx="27.5" cy="1641.28" width="55" height="13.0043"/>
						<rect x="0" y="1634.78" width="55" height="13.0043" class="st5"/>
						<text x="0" y="1644.58" class="st12" v:langID="2052"><v:paragraph/><v:tabList/>19.00</text>					</g>
					<g id="shape159-125" v:mID="159" v:groupContext="shape" transform="translate(150.57,-64.8166)">
						<title>工作表.159</title>
						<desc>14.18</desc>
						<v:textBlock v:margins="rect(0,0,0,0)" v:tabSpace="42.5197"/>
						<v:textRect cx="27.5" cy="1641.28" width="55" height="13.0043"/>
						<rect x="0" y="1634.78" width="55" height="13.0043" class="st5"/>
						<text x="0" y="1644.58" class="st12" v:langID="2052"><v:paragraph/><v:tabList/>14.18</text>					</g>
				</g>
				<g id="group160-128" transform="translate(348.102,-6.03479)" v:mID="160" v:groupContext="group">
					<title>axes_2</title>
					<g id="shape161-129" v:mID="161" v:groupContext="shape" transform="translate(26.3403,-38.9038)">
						<title>工作表.161</title>
						<rect x="0" y="1301.47" width="259.319" height="346.314" class="st1"/>
					</g>
					<g id="group162-131" v:mID="162" v:groupContext="group">
						<title>matplotlib.axis_3</title>
						<g id="group163-132" transform="translate(26.3403,-19.8771)" v:mID="163" v:groupContext="group">
							<title>xtick_7</title>
							<g id="group164-133" transform="translate(1.59872E-12,-19.0267)" v:mID="164" v:groupContext="group">
								<title>pcfe872cb5e</title>
								<g id="shape165-134" v:mID="165" v:groupContext="shape">
									<title>工作表.165</title>
									<rect x="0" y="1301.47" width="259.319" height="346.314" class="st2"/>
								</g>
							</g>
							<g id="shape166-136" v:mID="166" v:groupContext="shape" transform="translate(69.9705,-15.5786)">
								<title>m23edc67fa8</title>
								<path d="M0 1644.33 L0 1647.78 L0 1644.33 Z" class="st3"/>
								<path d="M0 1644.33 L0 1647.78" class="st4"/>
							</g>
							<g id="shape167-139" v:mID="167" v:groupContext="shape" transform="translate(62.1205,2.27374E-13)">
								<title>工作表.167</title>
								<desc>102</desc>
								<v:textBlock v:margins="rect(0,0,0,0)"/>
								<v:textRect cx="13.5" cy="1641.87" width="27.01" height="11.822"/>
								<rect x="0" y="1635.96" width="27" height="11.822" class="st5"/>
								<text x="-0" y="1644.87" class="st6" v:langID="2052"><v:paragraph/><v:tabList/>10<tspan
											class="st13">2</tspan></text>							</g>
						</g>
						<g id="group168-143" transform="translate(26.3403,-19.8771)" v:mID="168" v:groupContext="group">
							<title>xtick_8</title>
							<g id="group169-144" transform="translate(1.59872E-12,-19.0267)" v:mID="169" v:groupContext="group">
								<title>pcfe872cb5e</title>
								<g id="shape170-145" v:mID="170" v:groupContext="shape">
									<title>工作表.170</title>
									<rect x="0" y="1301.47" width="259.319" height="346.314" class="st2"/>
								</g>
							</g>
							<g id="shape171-147" v:mID="171" v:groupContext="shape" transform="translate(203.788,-15.5786)">
								<title>m23edc67fa8</title>
								<path d="M0 1644.33 L0 1647.78 L0 1644.33 Z" class="st3"/>
								<path d="M0 1644.33 L0 1647.78" class="st4"/>
							</g>
							<g id="shape172-150" v:mID="172" v:groupContext="shape" transform="translate(195.938,2.27374E-13)">
								<title>工作表.172</title>
								<desc>103</desc>
								<v:textBlock v:margins="rect(0,0,0,0)"/>
								<v:textRect cx="13.5" cy="1641.87" width="27.01" height="11.822"/>
								<rect x="0" y="1635.96" width="27" height="11.822" class="st5"/>
								<text x="-0" y="1644.87" class="st6" v:langID="2052"><v:paragraph/><v:tabList/>10<tspan
											class="st13">3</tspan></text>							</g>
						</g>
						<g id="group173-154" transform="translate(26.3403,-36.9334)" v:mID="173" v:groupContext="group">
							<title>line2d_22</title>
							<g id="shape174-155" v:mID="174" v:groupContext="shape">
								<title>m51600d82ad</title>
								<path d="M0 1645.81 L0 1647.78 L0 1645.81 Z" class="st3"/>
								<path d="M0 1645.81 L0 1647.78" class="st14"/>
							</g>
						</g>
						<g id="shape175-158" v:mID="175" v:groupContext="shape" transform="translate(43.0594,-36.9334)">
							<title>m51600d82ad</title>
							<path d="M0 1645.81 L0 1647.78 L0 1645.81 Z" class="st3"/>
							<path d="M0 1645.81 L0 1647.78" class="st14"/>
						</g>
						<g id="shape176-161" v:mID="176" v:groupContext="shape" transform="translate(56.0277,-36.9334)">
							<title>工作表.176</title>
							<path d="M0 1645.81 L0 1647.78 L0 1645.81 Z" class="st3"/>
							<path d="M0 1645.81 L0 1647.78" class="st14"/>
						</g>
						<g id="shape177-164" v:mID="177" v:groupContext="shape" transform="translate(66.6235,-36.9334)">
							<title>工作表.177</title>
							<path d="M0 1645.81 L0 1647.78 L0 1645.81 Z" class="st3"/>
							<path d="M0 1645.81 L0 1647.78" class="st14"/>
						</g>
						<g id="shape178-167" v:mID="178" v:groupContext="shape" transform="translate(75.5822,-36.9334)">
							<title>工作表.178</title>
							<path d="M0 1645.81 L0 1647.78 L0 1645.81 Z" class="st3"/>
							<path d="M0 1645.81 L0 1647.78" class="st14"/>
						</g>
						<g id="shape179-170" v:mID="179" v:groupContext="shape" transform="translate(83.3426,-36.9334)">
							<title>工作表.179</title>
							<path d="M0 1645.81 L0 1647.78 L0 1645.81 Z" class="st3"/>
							<path d="M0 1645.81 L0 1647.78" class="st14"/>
						</g>
						<g id="shape180-173" v:mID="180" v:groupContext="shape" transform="translate(90.1877,-36.9334)">
							<title>工作表.180</title>
							<path d="M0 1645.81 L0 1647.78 L0 1645.81 Z" class="st3"/>
							<path d="M0 1645.81 L0 1647.78" class="st14"/>
						</g>
						<g id="shape181-176" v:mID="181" v:groupContext="shape" transform="translate(136.594,-36.9334)">
							<title>工作表.181</title>
							<path d="M0 1645.81 L0 1647.78 L0 1645.81 Z" class="st3"/>
							<path d="M0 1645.81 L0 1647.78" class="st14"/>
						</g>
						<g id="shape182-179" v:mID="182" v:groupContext="shape" transform="translate(160.158,-36.9334)">
							<title>工作表.182</title>
							<path d="M0 1645.81 L0 1647.78 L0 1645.81 Z" class="st3"/>
							<path d="M0 1645.81 L0 1647.78" class="st14"/>
						</g>
						<g id="shape183-182" v:mID="183" v:groupContext="shape" transform="translate(176.877,-36.9334)">
							<title>工作表.183</title>
							<path d="M0 1645.81 L0 1647.78 L0 1645.81 Z" class="st3"/>
							<path d="M0 1645.81 L0 1647.78" class="st14"/>
						</g>
						<g id="shape184-185" v:mID="184" v:groupContext="shape" transform="translate(189.846,-36.9334)">
							<title>工作表.184</title>
							<path d="M0 1645.81 L0 1647.78 L0 1645.81 Z" class="st3"/>
							<path d="M0 1645.81 L0 1647.78" class="st14"/>
						</g>
						<g id="shape185-188" v:mID="185" v:groupContext="shape" transform="translate(200.441,-36.9334)">
							<title>工作表.185</title>
							<path d="M0 1645.81 L0 1647.78 L0 1645.81 Z" class="st3"/>
							<path d="M0 1645.81 L0 1647.78" class="st14"/>
						</g>
						<g id="shape186-191" v:mID="186" v:groupContext="shape" transform="translate(209.4,-36.9334)">
							<title>工作表.186</title>
							<path d="M0 1645.81 L0 1647.78 L0 1645.81 Z" class="st3"/>
							<path d="M0 1645.81 L0 1647.78" class="st14"/>
						</g>
						<g id="shape187-194" v:mID="187" v:groupContext="shape" transform="translate(217.161,-36.9334)">
							<title>工作表.187</title>
							<path d="M0 1645.81 L0 1647.78 L0 1645.81 Z" class="st3"/>
							<path d="M0 1645.81 L0 1647.78" class="st14"/>
						</g>
						<g id="shape188-197" v:mID="188" v:groupContext="shape" transform="translate(224.006,-36.9334)">
							<title>工作表.188</title>
							<path d="M0 1645.81 L0 1647.78 L0 1645.81 Z" class="st3"/>
							<path d="M0 1645.81 L0 1647.78" class="st14"/>
						</g>
						<g id="shape189-200" v:mID="189" v:groupContext="shape" transform="translate(270.412,-36.9334)">
							<title>工作表.189</title>
							<path d="M0 1645.81 L0 1647.78 L0 1645.81 Z" class="st3"/>
							<path d="M0 1645.81 L0 1647.78" class="st14"/>
						</g>
						<g id="shape190-203" v:mID="190" v:groupContext="shape">
							<title>工作表.190</title>
							<desc>Lower is better, log scale</desc>
							<v:textBlock v:margins="rect(0,0,0,0)" v:tabSpace="42.5197"/>
							<v:textRect cx="156" cy="1640.69" width="312.01" height="14.1865"/>
							<rect x="0" y="1633.59" width="312" height="14.1865" class="st5"/>
							<text x="89.63" y="1644.29" class="st7" v:langID="2052"><v:paragraph v:horizAlign="1"/><v:tabList/>Lower is better, log scale</text>						</g>
					</g>
					<g id="group191-206" v:mID="191" v:groupContext="group">
						<title>工作表.191</title>
					</g>
					<g id="shape192-207" v:mID="192" v:groupContext="shape" transform="translate(26.3403,-38.9038)">
						<title>工作表.192</title>
						<path d="M0 1647.78 L259.32 1647.78 L0 1647.78 Z" class="st9"/>
						<path d="M0 1647.78 L259.32 1647.78" class="st10"/>
					</g>
					<g id="group193-210" transform="translate(26.3403,-38.9038)" v:mID="193" v:groupContext="group">
						<title>pcfe872cb5e</title>
						<g id="shape194-211" v:mID="194" v:groupContext="shape">
							<title>工作表.194</title>
							<rect x="0" y="1301.47" width="259.319" height="346.314" class="st2"/>
						</g>
					</g>
					<g id="group195-213" transform="translate(26.3403,-38.9038)" v:mID="195" v:groupContext="group">
						<title>工作表.195</title>
						<g id="shape196-214" v:mID="196" v:groupContext="shape">
							<title>工作表.196</title>
							<rect x="0" y="1301.47" width="259.319" height="346.314" class="st2"/>
						</g>
					</g>
					<g id="group197-216" transform="translate(26.3403,-38.9038)" v:mID="197" v:groupContext="group">
						<title>工作表.197</title>
						<g id="shape198-217" v:mID="198" v:groupContext="shape">
							<title>工作表.198</title>
							<rect x="0" y="1301.47" width="259.319" height="346.314" class="st2"/>
						</g>
					</g>
					<g id="group199-219" transform="translate(26.3403,-38.9038)" v:mID="199" v:groupContext="group">
						<title>工作表.199</title>
						<g id="shape200-220" v:mID="200" v:groupContext="shape">
							<title>工作表.200</title>
							<rect x="0" y="1301.47" width="259.319" height="346.314" class="st2"/>
						</g>
					</g>
					<g id="group201-222" transform="translate(26.3403,-38.9038)" v:mID="201" v:groupContext="group">
						<title>工作表.201</title>
						<g id="shape202-223" v:mID="202" v:groupContext="shape">
							<title>工作表.202</title>
							<rect x="0" y="1301.47" width="259.319" height="346.314" class="st2"/>
						</g>
					</g>
					<g id="shape203-225" v:mID="203" v:groupContext="shape" transform="translate(84,-381.058)">
						<title>工作表.203</title>
						<desc>FLOPs (G)</desc>
						<v:textBlock v:margins="rect(0,0,0,0)" v:tabSpace="42.5197"/>
						<v:textRect cx="72" cy="1638.32" width="144" height="18.9153"/>
						<rect x="0" y="1628.86" width="144" height="18.9153" class="st5"/>
						<text x="43" y="1641.92" class="st7" v:langID="2052"><v:paragraph v:horizAlign="1"/><v:tabList/>FLOPs (G)</text>					</g>
					<g id="shape204-228" v:mID="204" v:groupContext="shape" transform="translate(65.8903,-344.084)">
						<title>工作表.204</title>
						<desc>54.9</desc>
						<v:textBlock v:margins="rect(0,0,0,0)" v:tabSpace="42.5197"/>
						<v:textRect cx="22" cy="1641.28" width="44.01" height="13.0043"/>
						<rect x="0" y="1634.78" width="44" height="13.0043" class="st5"/>
						<text x="0" y="1644.58" class="st11" v:langID="2052"><v:paragraph/><v:tabList/>54.9</text>					</g>
					<g id="shape205-231" v:mID="205" v:groupContext="shape" transform="translate(59.8846,-275.05)">
						<title>工作表.205</title>
						<desc>49.5</desc>
						<v:textBlock v:margins="rect(0,0,0,0)" v:tabSpace="42.5197"/>
						<v:textRect cx="22" cy="1641.28" width="44.01" height="13.0043"/>
						<rect x="0" y="1634.78" width="44" height="13.0043" class="st5"/>
						<text x="-0" y="1644.58" class="st12" v:langID="2052"><v:paragraph/><v:tabList/>49.5</text>					</g>
					<g id="shape206-234" v:mID="206" v:groupContext="shape" transform="translate(114.966,-206.008)">
						<title>工作表.206</title>
						<desc>127.6</desc>
						<v:textBlock v:margins="rect(0,0,0,0)" v:tabSpace="42.5197"/>
						<v:textRect cx="27.5" cy="1641.28" width="55" height="13.0043"/>
						<rect x="0" y="1634.78" width="55" height="13.0043" class="st5"/>
						<text x="-0" y="1644.58" class="st12" v:langID="2052"><v:paragraph/><v:tabList/>127.6</text>					</g>
					<g id="shape207-237" v:mID="207" v:groupContext="shape" transform="translate(189.027,-136.966)">
						<title>工作表.207</title>
						<desc>456.5</desc>
						<v:textBlock v:margins="rect(0,0,0,0)" v:tabSpace="42.5197"/>
						<v:textRect cx="27.5" cy="1641.28" width="55" height="13.0043"/>
						<rect x="0" y="1634.78" width="55" height="13.0043" class="st5"/>
						<text x="-0" y="1644.58" class="st12" v:langID="2052"><v:paragraph/><v:tabList/>456.5</text>					</g>
					<g id="shape208-240" v:mID="208" v:groupContext="shape" transform="translate(268.469,-67.9245)">
						<title>工作表.208</title>
						<desc>1791.0</desc>
						<v:textBlock v:margins="rect(0,0,0,0)" v:tabSpace="42.5197"/>
						<v:textRect cx="33" cy="1641.28" width="66.01" height="13.0043"/>
						<rect x="0" y="1634.78" width="66" height="13.0043" class="st5"/>
						<text x="0" y="1644.58" class="st12" v:langID="2052"><v:paragraph/><v:tabList/>1791.0</text>					</g>
				</g>
				<g id="group209-243" transform="translate(671.168,-9.14269)" v:mID="209" v:groupContext="group">
					<title>axes_3</title>
					<g id="shape210-244" v:mID="210" v:groupContext="shape" transform="translate(5,-35.7959)">
						<title>工作表.210</title>
						<rect x="0" y="1301.47" width="219.762" height="346.314" class="st1"/>
					</g>
					<g id="group211-246" v:mID="211" v:groupContext="group">
						<title>matplotlib.axis_5</title>
						<g id="group212-247" transform="translate(-6.39488E-13,-18.8925)" v:mID="212" v:groupContext="group">
							<title>xtick_25</title>
							<g id="group213-248" transform="translate(5,-16.9034)" v:mID="213" v:groupContext="group">
								<title>p877f883575</title>
								<g id="shape214-249" v:mID="214" v:groupContext="shape">
									<title>工作表.214</title>
									<rect x="0" y="1301.47" width="219.762" height="346.314" class="st2"/>
								</g>
							</g>
							<g id="shape215-251" v:mID="215" v:groupContext="shape" transform="translate(5,-13.4553)">
								<title>m23edc67fa8</title>
								<path d="M0 1644.33 L0 1647.78 L0 1644.33 Z" class="st3"/>
								<path d="M0 1644.33 L0 1647.78" class="st4"/>
							</g>
							<g id="shape216-254" v:mID="216" v:groupContext="shape">
								<title>工作表.216</title>
								<desc>0</desc>
								<v:textBlock v:margins="rect(0,0,0,0)" v:tabSpace="42.5197"/>
								<v:textRect cx="5" cy="1641.87" width="10" height="11.822"/>
								<rect x="0" y="1635.96" width="10" height="11.822" class="st5"/>
								<text x="2.22" y="1644.87" class="st6" v:langID="2052"><v:paragraph v:horizAlign="1"/><v:tabList/>0</text>							</g>
						</g>
						<g id="group217-257" transform="translate(5,-18.8925)" v:mID="217" v:groupContext="group">
							<title>xtick_26</title>
							<g id="group218-258" transform="translate(-1.08713E-12,-16.9034)" v:mID="218" v:groupContext="group">
								<title>p877f883575</title>
								<g id="shape219-259" v:mID="219" v:groupContext="shape">
									<title>工作表.219</title>
									<rect x="0" y="1301.47" width="219.762" height="346.314" class="st2"/>
								</g>
							</g>
							<g id="shape220-261" v:mID="220" v:groupContext="shape" transform="translate(31.8496,-13.4553)">
								<title>m23edc67fa8</title>
								<path d="M0 1644.33 L0 1647.78 L0 1644.33 Z" class="st3"/>
								<path d="M0 1644.33 L0 1647.78" class="st4"/>
							</g>
							<g id="shape221-264" v:mID="221" v:groupContext="shape" transform="translate(26.8496,0)">
								<title>工作表.221</title>
								<desc>5</desc>
								<v:textBlock v:margins="rect(0,0,0,0)" v:tabSpace="42.5197"/>
								<v:textRect cx="5" cy="1641.87" width="10.01" height="11.822"/>
								<rect x="0" y="1635.96" width="10" height="11.822" class="st5"/>
								<text x="2.22" y="1644.87" class="st6" v:langID="2052"><v:paragraph v:horizAlign="1"/><v:tabList/>5</text>							</g>
						</g>
						<g id="group222-267" transform="translate(5,-18.8925)" v:mID="222" v:groupContext="group">
							<title>xtick_27</title>
							<g id="group223-268" transform="translate(-1.08713E-12,-16.9034)" v:mID="223" v:groupContext="group">
								<title>p877f883575</title>
								<g id="shape224-269" v:mID="224" v:groupContext="shape">
									<title>工作表.224</title>
									<rect x="0" y="1301.47" width="219.762" height="346.314" class="st2"/>
								</g>
							</g>
							<g id="shape225-271" v:mID="225" v:groupContext="shape" transform="translate(63.6992,-13.4553)">
								<title>m23edc67fa8</title>
								<path d="M0 1644.33 L0 1647.78 L0 1644.33 Z" class="st3"/>
								<path d="M0 1644.33 L0 1647.78" class="st4"/>
							</g>
							<g id="shape226-274" v:mID="226" v:groupContext="shape" transform="translate(53.6992,0)">
								<title>工作表.226</title>
								<desc>10</desc>
								<v:textBlock v:margins="rect(0,0,0,0)" v:tabSpace="42.5197"/>
								<v:textRect cx="10" cy="1641.87" width="20" height="11.822"/>
								<rect x="0" y="1635.96" width="20" height="11.822" class="st5"/>
								<text x="4.44" y="1644.87" class="st6" v:langID="2052"><v:paragraph v:horizAlign="1"/><v:tabList/>10</text>							</g>
						</g>
						<g id="group227-277" transform="translate(5,-18.8925)" v:mID="227" v:groupContext="group">
							<title>xtick_28</title>
							<g id="group228-278" transform="translate(-1.08713E-12,-16.9034)" v:mID="228" v:groupContext="group">
								<title>p877f883575</title>
								<g id="shape229-279" v:mID="229" v:groupContext="shape">
									<title>工作表.229</title>
									<rect x="0" y="1301.47" width="219.762" height="346.314" class="st2"/>
								</g>
							</g>
							<g id="shape230-281" v:mID="230" v:groupContext="shape" transform="translate(95.5488,-13.4553)">
								<title>m23edc67fa8</title>
								<path d="M0 1644.33 L0 1647.78 L0 1644.33 Z" class="st3"/>
								<path d="M0 1644.33 L0 1647.78" class="st4"/>
							</g>
							<g id="shape231-284" v:mID="231" v:groupContext="shape" transform="translate(85.5488,0)">
								<title>工作表.231</title>
								<desc>15</desc>
								<v:textBlock v:margins="rect(0,0,0,0)" v:tabSpace="42.5197"/>
								<v:textRect cx="10" cy="1641.87" width="20" height="11.822"/>
								<rect x="0" y="1635.96" width="20" height="11.822" class="st5"/>
								<text x="4.44" y="1644.87" class="st6" v:langID="2052"><v:paragraph v:horizAlign="1"/><v:tabList/>15</text>							</g>
						</g>
						<g id="group232-287" transform="translate(5,-18.8925)" v:mID="232" v:groupContext="group">
							<title>xtick_29</title>
							<g id="group233-288" transform="translate(-1.08713E-12,-16.9034)" v:mID="233" v:groupContext="group">
								<title>p877f883575</title>
								<g id="shape234-289" v:mID="234" v:groupContext="shape">
									<title>工作表.234</title>
									<rect x="0" y="1301.47" width="219.762" height="346.314" class="st2"/>
								</g>
							</g>
							<g id="shape235-291" v:mID="235" v:groupContext="shape" transform="translate(127.398,-13.4553)">
								<title>m23edc67fa8</title>
								<path d="M0 1644.33 L0 1647.78 L0 1644.33 Z" class="st3"/>
								<path d="M0 1644.33 L0 1647.78" class="st4"/>
							</g>
							<g id="shape236-294" v:mID="236" v:groupContext="shape" transform="translate(117.398,0)">
								<title>工作表.236</title>
								<desc>20</desc>
								<v:textBlock v:margins="rect(0,0,0,0)" v:tabSpace="42.5197"/>
								<v:textRect cx="10" cy="1641.87" width="20" height="11.822"/>
								<rect x="0" y="1635.96" width="20" height="11.822" class="st5"/>
								<text x="4.44" y="1644.87" class="st6" v:langID="2052"><v:paragraph v:horizAlign="1"/><v:tabList/>20</text>							</g>
						</g>
						<g id="group237-297" transform="translate(5,-18.8925)" v:mID="237" v:groupContext="group">
							<title>xtick_30</title>
							<g id="group238-298" transform="translate(-1.08713E-12,-16.9034)" v:mID="238" v:groupContext="group">
								<title>p877f883575</title>
								<g id="shape239-299" v:mID="239" v:groupContext="shape">
									<title>工作表.239</title>
									<rect x="0" y="1301.47" width="219.762" height="346.314" class="st2"/>
								</g>
							</g>
							<g id="shape240-301" v:mID="240" v:groupContext="shape" transform="translate(159.248,-13.4553)">
								<title>m23edc67fa8</title>
								<path d="M0 1644.33 L0 1647.78 L0 1644.33 Z" class="st3"/>
								<path d="M0 1644.33 L0 1647.78" class="st4"/>
							</g>
							<g id="shape241-304" v:mID="241" v:groupContext="shape" transform="translate(149.248,0)">
								<title>工作表.241</title>
								<desc>25</desc>
								<v:textBlock v:margins="rect(0,0,0,0)" v:tabSpace="42.5197"/>
								<v:textRect cx="10" cy="1641.87" width="20" height="11.822"/>
								<rect x="0" y="1635.96" width="20" height="11.822" class="st5"/>
								<text x="4.44" y="1644.87" class="st6" v:langID="2052"><v:paragraph v:horizAlign="1"/><v:tabList/>25</text>							</g>
						</g>
						<g id="group242-307" transform="translate(5,-18.8925)" v:mID="242" v:groupContext="group">
							<title>xtick_31</title>
							<g id="group243-308" transform="translate(-1.08713E-12,-16.9034)" v:mID="243" v:groupContext="group">
								<title>p877f883575</title>
								<g id="shape244-309" v:mID="244" v:groupContext="shape">
									<title>工作表.244</title>
									<rect x="0" y="1301.47" width="219.762" height="346.314" class="st2"/>
								</g>
							</g>
							<g id="shape245-311" v:mID="245" v:groupContext="shape" transform="translate(191.098,-13.4553)">
								<title>m23edc67fa8</title>
								<path d="M0 1644.33 L0 1647.78 L0 1644.33 Z" class="st3"/>
								<path d="M0 1644.33 L0 1647.78" class="st4"/>
							</g>
							<g id="shape246-314" v:mID="246" v:groupContext="shape" transform="translate(181.098,0)">
								<title>工作表.246</title>
								<desc>30</desc>
								<v:textBlock v:margins="rect(0,0,0,0)" v:tabSpace="42.5197"/>
								<v:textRect cx="10" cy="1641.87" width="20" height="11.822"/>
								<rect x="0" y="1635.96" width="20" height="11.822" class="st5"/>
								<text x="4.44" y="1644.87" class="st6" v:langID="2052"><v:paragraph v:horizAlign="1"/><v:tabList/>30</text>							</g>
						</g>
						<g id="shape247-317" v:mID="247" v:groupContext="shape" transform="translate(24.8811,0)">
							<title>工作表.247</title>
							<desc>Lower is better</desc>
							<v:textBlock v:margins="rect(0,0,0,0)" v:tabSpace="42.5197"/>
							<v:textRect cx="90" cy="1640.69" width="180" height="14.1865"/>
							<rect x="0" y="1633.59" width="180" height="14.1865" class="st5"/>
							<text x="50.65" y="1644.29" class="st7" v:langID="2052"><v:paragraph v:horizAlign="1"/><v:tabList/>Lower is better</text>						</g>
					</g>
					<g id="group248-320" v:mID="248" v:groupContext="group">
						<title>工作表.248</title>
					</g>
					<g id="shape249-321" v:mID="249" v:groupContext="shape" transform="translate(5,-35.7959)">
						<title>工作表.249</title>
						<path d="M0 1647.78 L219.76 1647.78 L0 1647.78 Z" class="st9"/>
						<path d="M0 1647.78 L219.76 1647.78" class="st10"/>
					</g>
					<g id="group250-324" transform="translate(5,-35.7959)" v:mID="250" v:groupContext="group">
						<title>p877f883575</title>
						<g id="shape251-325" v:mID="251" v:groupContext="shape">
							<title>工作表.251</title>
							<rect x="0" y="1301.47" width="219.762" height="346.314" class="st2"/>
						</g>
					</g>
					<g id="group252-327" transform="translate(5,-35.7959)" v:mID="252" v:groupContext="group">
						<title>工作表.252</title>
						<g id="shape253-328" v:mID="253" v:groupContext="shape">
							<title>工作表.253</title>
							<rect x="0" y="1301.47" width="219.762" height="346.314" class="st2"/>
						</g>
					</g>
					<g id="group254-330" transform="translate(5,-35.7959)" v:mID="254" v:groupContext="group">
						<title>工作表.254</title>
						<g id="shape255-331" v:mID="255" v:groupContext="shape">
							<title>工作表.255</title>
							<rect x="0" y="1301.47" width="219.762" height="346.314" class="st2"/>
						</g>
					</g>
					<g id="group256-333" transform="translate(5,-35.7959)" v:mID="256" v:groupContext="group">
						<title>工作表.256</title>
						<g id="shape257-334" v:mID="257" v:groupContext="shape">
							<title>工作表.257</title>
							<rect x="0" y="1301.47" width="219.762" height="346.314" class="st2"/>
						</g>
					</g>
					<g id="group258-336" transform="translate(5,-35.7959)" v:mID="258" v:groupContext="group">
						<title>工作表.258</title>
						<g id="shape259-337" v:mID="259" v:groupContext="shape">
							<title>工作表.259</title>
							<rect x="0" y="1301.47" width="219.762" height="346.314" class="st2"/>
						</g>
					</g>
					<g id="shape260-339" v:mID="260" v:groupContext="shape" transform="translate(34.8811,-377.95)">
						<title>工作表.260</title>
						<desc>Params (M)</desc>
						<v:textBlock v:margins="rect(0,0,0,0)" v:tabSpace="42.5197"/>
						<v:textRect cx="80" cy="1638.32" width="160" height="18.9153"/>
						<rect x="0" y="1628.86" width="160" height="18.9153" class="st5"/>
						<text x="48.67" y="1641.92" class="st7" v:langID="2052"><v:paragraph v:horizAlign="1"/><v:tabList/>Params (M)</text>					</g>
					<g id="shape261-342" v:mID="261" v:groupContext="shape" transform="translate(30.2504,-340.977)">
						<title>工作表.261</title>
						<desc>3.26</desc>
						<v:textBlock v:margins="rect(0,0,0,0)" v:tabSpace="42.5197"/>
						<v:textRect cx="22" cy="1641.28" width="44" height="13.0043"/>
						<rect x="0" y="1634.78" width="44" height="13.0043" class="st5"/>
						<text x="0" y="1644.58" class="st11" v:langID="2052"><v:paragraph/><v:tabList/>3.26</text>					</g>
					<g id="shape262-345" v:mID="262" v:groupContext="shape" transform="translate(25.7978,-271.942)">
						<title>工作表.262</title>
						<desc>2.56</desc>
						<v:textBlock v:margins="rect(0,0,0,0)" v:tabSpace="42.5197"/>
						<v:textRect cx="22" cy="1641.28" width="44" height="13.0043"/>
						<rect x="0" y="1634.78" width="44" height="13.0043" class="st5"/>
						<text x="0" y="1644.58" class="st12" v:langID="2052"><v:paragraph/><v:tabList/>2.56</text>					</g>
					<g id="shape263-348" v:mID="263" v:groupContext="shape" transform="translate(61.0744,-202.9)">
						<title>工作表.263</title>
						<desc>8.10</desc>
						<v:textBlock v:margins="rect(0,0,0,0)" v:tabSpace="42.5197"/>
						<v:textRect cx="22" cy="1641.28" width="44" height="13.0043"/>
						<rect x="0" y="1634.78" width="44" height="13.0043" class="st5"/>
						<text x="0" y="1644.58" class="st12" v:langID="2052"><v:paragraph/><v:tabList/>8.10</text>					</g>
					<g id="shape264-351" v:mID="264" v:groupContext="shape" transform="translate(47.6784,-133.858)">
						<title>工作表.264</title>
						<desc>6.00</desc>
						<v:textBlock v:margins="rect(0,0,0,0)" v:tabSpace="42.5197"/>
						<v:textRect cx="22" cy="1641.28" width="44" height="13.0043"/>
						<rect x="0" y="1634.78" width="44" height="13.0043" class="st5"/>
						<text x="0" y="1644.58" class="st12" v:langID="2052"><v:paragraph/><v:tabList/>6.00</text>					</g>
					<g id="shape265-354" v:mID="265" v:groupContext="shape" transform="translate(207.156,-64.8166)">
						<title>工作表.265</title>
						<desc>31.04</desc>
						<v:textBlock v:margins="rect(0,0,0,0)" v:tabSpace="42.5197"/>
						<v:textRect cx="27.5" cy="1641.28" width="55" height="13.0043"/>
						<rect x="0" y="1634.78" width="55" height="13.0043" class="st5"/>
						<text x="0" y="1644.58" class="st12" v:langID="2052"><v:paragraph/><v:tabList/>31.04</text>					</g>
				</g>
				<g id="shape266-357" v:mID="266" v:groupContext="shape" transform="translate(287.987,-411.656)">
					<title>工作表.266</title>
					<desc>Efficiency Comparison</desc>
					<v:textBlock v:margins="rect(0,0,0,0)" v:tabSpace="42.5197"/>
					<v:textRect cx="189" cy="1637.14" width="378" height="21.2797"/>
					<rect x="0" y="1626.5" width="378" height="21.2797" class="st5"/>
					<text x="99.47" y="1642.54" class="st15" v:langID="2052"><v:paragraph v:horizAlign="1"/><v:tabList/>Efficiency Comparison</text>				</g>
			</g>
		</g>
	</g>
</svg>
